<?xml version="1.0" encoding="UTF-8"?>
<svg id="Layer_1" data-name="Layer 1" xmlns="http://www.w3.org/2000/svg" viewBox="0 0 440.81 113.56">
  <defs>
    <style>
      .cls-1 {
        fill: #b50246;
        stroke-width: 0px;
      }
    </style>
  </defs>
  <path class="cls-1" d="M93.07,89.6l5.85-12.85c.6-1.29,1.18-2.64,3.36-2.64,0,0-.83,1.32-1.44,2.64l-8.72,19.17-8.72-19.17c-.6-1.32-1.43-2.64-1.43-2.64,3.99,0,4.62,1.35,5.22,2.64l5.88,12.85Z"/>
  <path class="cls-1" d="M108.88,94.47h-3.44v-17.21c0-1.44,0-3.16,3.73-3.16,0,0-.29,1.72-.29,3.16v17.21Z"/>
  <path class="cls-1" d="M120.33,75.8c-2.75,0-4.07,1.46-4.07,3.07,0,.8.4,1.55,1.17,1.92l7.17,3.5c2.15,1.06,3.16,2.81,3.16,4.56,0,2.87-2.67,5.76-7.46,5.76-2.29,0-4.3-.11-6.97-.15l1.52-2.15c1.72.4,3.79.66,5.42.66,3.18,0,4.68-1.6,4.68-3.1,0-.83-.46-1.63-1.38-2.07l-7.03-3.47c-1.92-.95-2.92-2.78-2.92-4.65,0-2.73,2.15-5.45,6.71-5.45,2.04,0,4.1.11,6.46.15,0,.2-.03,1.92-2.09,1.92-1.72-.28-3.07-.51-4.36-.51"/>
  <path class="cls-1" d="M134.79,83.57h9.32v-6.31c0-1.43,0-3.16,3.73-3.16,0,0-.29,1.72-.29,3.16v14.38c0,1.43.29,3.13.29,3.13-3.73,0-3.73-1.72-3.73-3.15v-6.31h-9.32v6.31c0,1.43,0,3.15-3.73,3.15,0,0,.29-1.69.29-3.13v-14.38c0-1.43-.29-3.16-.29-3.16,3.73,0,3.73,1.72,3.73,3.16v6.31Z"/>
  <path class="cls-1" d="M166.12,72.96l7.69,16.07,4.27-12.16c.46-1.35,1.03-2.75,3.04-2.75,0,0-.69,1.38-1.17,2.75l-6.66,19.05-8-16.9-7.6,16.9-6.66-19.05c-.49-1.38-1.18-2.75-1.18-2.75,3.82,0,4.27,1.4,4.76,2.75l4.27,12.19,7.23-16.09Z"/>
  <path class="cls-1" d="M192.37,87.02h-7.06l-2.32,5.11c-.6,1.29-1.17,2.64-3.36,2.64,0,0,.83-1.32,1.43-2.64l8.72-19.17,8.72,19.17c.6,1.32,1.44,2.64,1.44,2.64-3.99,0-4.62-1.35-5.22-2.64l-2.35-5.11ZM186.08,85.29h5.51l-2.75-6.02-2.75,6.02Z"/>
  <path class="cls-1" d="M221.08,89.6l5.85-12.85c.6-1.29,1.18-2.64,3.36-2.64,0,0-.83,1.32-1.43,2.64l-8.72,19.17-8.72-19.17c-.6-1.32-1.44-2.64-1.44-2.64,3.99,0,4.62,1.35,5.22,2.64l5.88,12.85Z"/>
  <path class="cls-1" d="M236.89,94.47h-3.44v-17.21c0-1.44,0-3.16,3.73-3.16,0,0-.29,1.72-.29,3.16v17.21Z"/>
  <path class="cls-1" d="M249.17,74.25c5.94,0,9.93,4.48,9.93,10.18s-3.99,10.19-9.93,10.19c-2.7,0-4.91-.15-7.11-.15,0,0,.29-1.55.29-2.86v-14.35c0-1.44-.29-2.87-.29-2.87,2.38-.03,4.73-.15,7.11-.15M245.78,75.88v17.1c1.23.03,2.32.09,3.41.09,4.42,0,6.31-3.73,6.31-8.64s-2.24-8.63-6.31-8.63c-1.23,0-2.32.08-3.41.08"/>
  <path class="cls-1" d="M271.43,83.06c-.57.78-.77,2.3-.77,3.24v8.17h-3.44v-8.17c0-.95-.2-2.01-.77-2.78l-4.68-6.2c-.83-1.12-2.98-3.21-2.98-3.21,4.73,0,5.68,1.26,6.63,2.52l4.3,5.68,4.33-5.8c.89-1.21,1.81-2.41,4.62-2.41,0,0-1.72,1.63-2.55,2.75l-4.68,6.2Z"/>
  <path class="cls-1" d="M289.97,87.02h-7.06l-2.32,5.11c-.6,1.29-1.18,2.64-3.36,2.64,0,0,.83-1.32,1.44-2.64l8.72-19.17,8.72,19.17c.6,1.32,1.43,2.64,1.43,2.64-3.99,0-4.62-1.35-5.22-2.64l-2.35-5.11ZM283.68,85.29h5.51l-2.75-6.02-2.75,6.02Z"/>
  <path class="cls-1" d="M313.78,79.82c0,3.41-3.1,5.68-6.77,5.68-1.23,0-2.5-.09-3.73-.09v6.2c0,1.43,0,3.16-3.73,3.16,0,0,.29-1.72.29-3.16v-14.35c0-1.44-.29-2.87-.29-2.87h4.16c.63,0,1.12,0,1.63-.03.52,0,1.06-.03,1.67-.03,3.67,0,6.77,2.04,6.77,5.48M303.28,75.83v8.23c1.12.06,2.35.09,3.16.09,2.09,0,3.84-1.55,3.84-4.33s-1.75-4.04-3.84-4.04c-1.03,0-2.07.06-3.16.06"/>
  <path class="cls-1" d="M320.52,92.76h7.75c2.01,0,2.01,1.72,2.01,1.72h-13.48s.29-1.41.29-2.84v-14.38c0-1.43-.29-2.87-.29-2.87h13.48s0,1.72-2.01,1.72h-7.75v7.46h7.17v1.72h-7.17v7.46Z"/>
  <path class="cls-1" d="M337.44,92.76h7.75c2.01,0,2.01,1.72,2.01,1.72h-13.48s.29-1.41.29-2.84v-14.38c0-1.43-.29-2.87-.29-2.87h13.48s0,1.72-2.01,1.72h-7.75v7.46h7.17v1.72h-7.17v7.46Z"/>
  <path class="cls-1" d="M348.63,74.39h19.22c0,.11-.03,1.78-1.43,1.78-1.81-.03-2.75-.11-4.85-.11h-1.46v18.42h-3.73v-18.42h-1.46c-2.09,0-3.04.09-4.85.11-1.4,0-1.44-1.66-1.44-1.78"/>
  <path class="cls-1" d="M373.59,83.57h9.32v-6.31c0-1.43,0-3.16,3.73-3.16,0,0-.29,1.72-.29,3.16v14.38c0,1.43.29,3.13.29,3.13-3.73,0-3.73-1.72-3.73-3.15v-6.31h-9.32v6.31c0,1.43,0,3.15-3.73,3.15,0,0,.29-1.69.29-3.13v-14.38c0-1.43-.29-3.16-.29-3.16,3.73,0,3.73,1.72,3.73,3.16v6.31Z"/>
  <path class="cls-1" d="M401.39,87.02h-7.06l-2.32,5.11c-.6,1.29-1.18,2.64-3.36,2.64,0,0,.83-1.32,1.44-2.64l8.72-19.17,8.72,19.17c.6,1.32,1.44,2.64,1.44,2.64-3.99,0-4.62-1.35-5.22-2.64l-2.35-5.11ZM395.11,85.29h5.51l-2.75-6.02-2.75,6.02Z"/>
  <path class="cls-1" d="M424.54,95.91l-7.69-16.07-4.28,12.16c-.46,1.35-1.03,2.75-3.04,2.75,0,0,.69-1.38,1.18-2.75l6.66-19.05,8,16.9,7.61-16.9,6.65,19.05c.49,1.38,1.18,2.75,1.18,2.75-3.82,0-4.27-1.41-4.76-2.75l-4.27-12.19-7.23,16.1Z"/>
  <path class="cls-1" d="M112.89,0l-25.99,57.12c-1.19,2.62-3.51,6.55-4.93,8.89h.66c5.29,0,7.73-2.49,9.39-5.36.53-.92.98-1.88,1.41-2.82l.13-.29,6.44-14.14h20.21l6.47,14.15c1.85,3.96,3.95,8.45,16.49,8.45h.67s-3.14-4.95-4.94-8.89L112.89,0ZM102.24,38.48l7.84-17.22,7.88,17.22h-15.71Z"/>
  <path class="cls-1" d="M218.66,0l-22.66,50.36L172.15,0l-19.83,56.77c-1.46,4.11-4,9.23-4,9.23h.5c7,0,8.83-5.35,10.03-8.89l11.92-33.92,22.8,47.64,21.4-47.64,11.95,34.08c1.48,4.09,3.15,8.73,15.1,8.73h.48s-2.53-5.12-3.99-9.23L218.66,0Z"/>
  <path class="cls-1" d="M307.65,12.1v53.72h12.3V12.1c0-4.14.83-9.19.84-9.24l.2-1.19h-1.21c-12.13,0-12.13,6.03-12.13,10.43"/>
  <path class="cls-1" d="M382.9,8c4.18,0,5.29-3.97,5.29-6.32h-59.33c0,2.35,1.11,6.32,5.31,6.32,2.22-.03,4.02-.1,5.76-.16,2.58-.09,5.01-.18,8.68-.18h3.34v58.11h13.16V7.66h3.34c3.67,0,6.1.09,8.68.18,1.74.06,3.54.13,5.77.16"/>
  <path class="cls-1" d="M292.69,59.09l-16.33-21.86c9.92-1.71,17.84-8.93,17.26-19.49-.55-9.99-9.56-16.06-20.51-16.06-8.12,0-15.64.34-23.08.34,0,0,.86,4.27.86,8.55l-.34,46.04c0,4.27-.85,9.41-.85,9.41,11.11,0,11.11-5.13,11.11-9.41l.34-50.06c4.53,0,7.35-.18,10.26-.17,6.48.03,11.57,4.64,12.3,11.53.81,7.6-1.83,13.26-7.36,15.76-4.06,1.65-12.87,1.41-12.87,1.41l18.05,24.25c2.57,3.42,6.05,6.69,17.25,6.69,0,0-3.08-2.91-6.07-6.93"/>
  <path class="cls-1" d="M435.79,57.12L409.8,0l-25.99,57.12c-1.19,2.62-3.51,6.55-4.93,8.89h.65c5.29,0,7.74-2.49,9.39-5.36.53-.92.98-1.88,1.41-2.82l.14-.29,6.43-14.14h20.2l6.47,14.15c1.85,3.96,3.95,8.45,16.49,8.45h.67s-3.14-4.95-4.94-8.89M399.15,38.48l7.84-17.22,7.88,17.22h-15.71Z"/>
  <path class="cls-1" d="M47.31,48.21l-1.21.4c.37.22.87.39,1.61.39.04,0,.09,0,.13,0,.12,0,.22.01.3.03h17.19c.19-.47.36-.96.53-1.44h-17.07c-.45.24-.94.45-1.48.62"/>
  <path class="cls-1" d="M28.2,49c.05,0,.1,0,.14,0,.74,0,1.24-.17,1.61-.39l-1.21-.4c-.55-.17-1.03-.39-1.48-.62H10.09c.16.49.34.97.52,1.44h17.29c.09-.02.18-.03.3-.03"/>
  <path class="cls-1" d="M48.24,50.32c-.67.42-2.04.84-3.39.86h-.04c-.12,0-.24-.02-.34-.06-.42.25-1.38.53-2.24.63h21.88c.25-.47.48-.96.7-1.45h-16.53s-.02.02-.03.03"/>
  <path class="cls-1" d="M31.59,51.11c-.1.04-.22.06-.34.06h-.04c-1.36-.01-2.73-.43-3.37-.84-.01,0-.03-.02-.05-.04H11.14c.22.49.45.97.7,1.45h21.99c-.86-.1-1.82-.38-2.24-.63"/>
  <path class="cls-1" d="M5.3,38.33c-.76.2-1.35.61-1.76,1.24-1.47,2.25-.39,6.8.48,10.46.31,1.31.6,2.55.72,3.47.02.16.05.33.07.5.16,1.13.34,2.42.09,3.22l-.08.25.26.06c.82.18,1.84.99,2.74,1.69.14.11.27.21.4.31.74.56,1.66,1.44,2.64,2.36,2.68,2.52,5.99,5.65,8.64,5.65.06,0,.12,0,.18,0,.76-.04,1.42-.35,1.98-.92-.21.75-.14,1.47.2,2.14,1.21,2.4,5.7,3.74,9.3,4.82,1.29.39,2.51.75,3.37,1.11.15.06.31.13.47.19,1.06.43,2.26.92,2.83,1.53l.18.19.18-.19c.57-.61,1.77-1.1,2.84-1.53.16-.07.32-.13.47-.19.86-.36,2.08-.72,3.37-1.11,3.6-1.08,8.09-2.42,9.3-4.82.34-.68.4-1.41.19-2.17.55.55,1.21.86,1.95.9.06,0,.12,0,.18,0,2.65,0,5.97-3.13,8.64-5.65.98-.92,1.9-1.8,2.64-2.36.13-.1.26-.2.4-.31.9-.7,1.93-1.5,2.74-1.69l.25-.06-.08-.25c-.25-.8-.07-2.08.09-3.22.02-.17.05-.34.07-.5.12-.92.42-2.16.72-3.47.87-3.66,1.95-8.22.48-10.46-.41-.64-1.01-1.05-1.78-1.25.76-.2,1.34-.62,1.76-1.24,1.47-2.25.39-6.8-.48-10.47-.31-1.31-.6-2.55-.72-3.47-.02-.16-.05-.33-.07-.5-.16-1.13-.34-2.42-.09-3.22l.08-.25-.26-.06c-.82-.18-1.84-.98-2.74-1.68-.13-.11-.27-.21-.4-.31-.74-.57-1.66-1.44-2.64-2.36-2.68-2.52-5.99-5.65-8.64-5.65-.06,0-.12,0-.18,0-.76.04-1.42.35-1.98.92.2-.75.14-1.47-.2-2.14-1.21-2.4-5.7-3.74-9.3-4.82-1.29-.39-2.51-.75-3.36-1.11-.15-.06-.31-.12-.47-.19-1.06-.43-2.26-.92-2.83-1.53l-.18-.19-.18.19c-.57.61-1.77,1.1-2.83,1.53-.16.07-.32.13-.47.19-.86.36-2.07.72-3.36,1.11-3.6,1.08-8.09,2.42-9.3,4.82-.34.68-.4,1.41-.19,2.17-.55-.55-1.21-.86-1.95-.9-2.68-.16-6.09,3.06-8.83,5.64-.98.93-1.9,1.8-2.64,2.36-.13.1-.26.2-.4.31-.9.7-1.93,1.5-2.74,1.69l-.26.06.08.25c.25.8.07,2.08-.09,3.22-.02.17-.05.34-.07.5-.12.92-.41,2.16-.72,3.47-.87,3.66-1.95,8.22-.48,10.47.42.64,1.02,1.05,1.79,1.25M37.97,6.14c17.67,0,32.05,14.44,32.05,32.19s-14.37,32.19-32.05,32.19S5.93,56.08,5.93,38.33,20.3,6.14,37.97,6.14"/>
  <path class="cls-1" d="M26.3,65.27h23.36c.99-.43,1.95-.91,2.89-1.45h-29.13c.93.53,1.89,1.01,2.89,1.45"/>
  <path class="cls-1" d="M37.98,67.69c2.84,0,5.59-.41,8.19-1.16h-16.38c2.6.76,5.35,1.16,8.19,1.16"/>
  <path class="cls-1" d="M45.09,38.34c-.2-.17-.8-.36-1.53-.36-.33,0-.64.04-.94.11-1.1.27-2,1.42-1.99,1.99.34.42.75.87,1.16,1.26.88.84,1.68,1.69,1.73,2.85.03.53-.06,1.03-.25,1.52-.4,1.03-1.32,1.63-2.17,1.97,2.48-.11,4.29-.68,5.24-1.66.62-.64.91-1.48.84-2.5-.05-.71-.57-1.4-1.07-2.08-.7-.95-1.43-1.94-1-3.08,0,0-.01-.01-.02-.02"/>
  <path class="cls-1" d="M48.47,38.99c-.39,0-.97.04-1.53.24-.66.23-1.05.47-1.21.74.2.4.5.8.79,1.19.54.73,1.1,1.49,1.16,2.34.08,1.17-.25,2.14-.98,2.88-.88.91-2.32,1.48-4.3,1.71.14,0,.28,0,.42,0,2.94,0,5.31-.66,6.69-1.87.86-.75,1.27-1.66,1.21-2.69-.04-.7-.43-1.25-.8-1.77-.52-.72-1.1-1.54-.45-2.65-.17-.06-.53-.11-1-.11"/>
  <path class="cls-1" d="M42.82,45.54c.17-.43.24-.86.22-1.32-.05-.97-.78-1.75-1.58-2.51-.28-.27-1.71-1.67-2.19-2.87l-.08-.19c-.35-.86-.59-1.39-1.15-1.4-.56,0-.83.58-1.18,1.44-.03.03-.97,1.8-2.34,3.11-.77.74-1.44,1.49-1.48,2.42-.02.47.04.89.22,1.32.59,1.51,2.79,2.19,4.71,2.19h.16c1.92,0,4.12-.68,4.71-2.19"/>
  <path class="cls-1" d="M28.88,43.53c-.07,1.02.22,1.86.84,2.5.95.98,2.75,1.55,5.24,1.66-.86-.34-1.78-.94-2.18-1.97-.19-.5-.27-.99-.25-1.52.06-1.15.85-2.01,1.74-2.85.41-.39.82-.84,1.16-1.26.01-.57-.9-1.72-2-1.99-.29-.07-.61-.11-.94-.11-.73,0-1.33.18-1.52.36,0,0-.02.02-.02.02.43,1.14-.3,2.13-1.01,3.08-.5.68-1.02,1.37-1.07,2.08"/>
  <path class="cls-1" d="M25.34,43.53c-.05,1.03.36,1.94,1.21,2.69,1.37,1.21,3.75,1.87,6.69,1.87.14,0,.28,0,.42,0-1.98-.23-3.43-.8-4.3-1.71-.72-.75-1.05-1.72-.98-2.88.06-.86.62-1.61,1.16-2.34.29-.39.59-.79.79-1.19-.16-.27-.56-.51-1.21-.74-.55-.19-1.14-.24-1.53-.24-.47,0-.83.06-1,.11.65,1.12.07,1.94-.45,2.65-.38.53-.77,1.07-.8,1.77"/>
  <path class="cls-1" d="M32.17,49.33c.11-.07.2-.13.29-.19.19-.13.3-.25.41-.37.05-.06.11-.12.18-.18-.57,0-1.13-.04-1.67-.1-.06,0-.09.03-.11.05-.07.05-.14.11-.21.17-.47.4-1.22,1.03-2.73,1.03h-.05c.51.29,1.7.68,2.95.69h0c.13,0,.14-.05.14-.08,0-.08,0-.15,0-.21.08-.35.41-.56.8-.81"/>
  <path class="cls-1" d="M34.04,51.07c.32,0,.59-.03.81-.11.16-.05.26-.11.32-.19-.06-.07-.1-.13-.15-.19-.34-.53-.53-1.4.09-2.07,0,0,.01-.01.02-.02-.19.02-.38.03-.57.04-.92.12-1.11.31-1.34.56-.12.13-.26.28-.49.44-.09.07-.19.13-.28.18-.29.19-.57.37-.6.51,0,.05,0,.1.05.17.23.36,1.21.66,2.13.66"/>
  <path class="cls-1" d="M38.03,48.26h-.03c-1.35,0-2.15.19-2.52.59-.43.46-.3,1.06-.03,1.46.06.09.12.17.2.24l.06.05c.2.16.44.25.7.34.56.21,1.2.45,1.63,1.43.43-.99,1.07-1.22,1.63-1.43.25-.09.49-.18.7-.34l.06-.05c.08-.07.14-.15.2-.24.26-.41.39-1-.03-1.46-.37-.4-1.18-.59-2.53-.59h-.03Z"/>
  <path class="cls-1" d="M40.89,50.78c.05.07.16.14.32.19.22.07.5.11.81.11.93,0,1.91-.3,2.14-.66.05-.07.06-.13.05-.17-.03-.15-.31-.32-.6-.51-.09-.06-.19-.12-.28-.18-.23-.16-.37-.31-.49-.44-.23-.25-.41-.45-1.34-.56-.19-.01-.38-.03-.57-.04,0,0,.01.01.02.02.62.67.43,1.53.09,2.07-.04.06-.09.12-.14.19"/>
  <path class="cls-1" d="M44.83,50.43h0c1.25-.01,2.43-.41,2.95-.69h-.05c-1.51,0-2.27-.64-2.73-1.03-.07-.06-.14-.11-.21-.17-.02-.02-.05-.04-.11-.05h0c-.54.06-1.11.09-1.67.1.07.06.12.12.18.18.11.12.22.24.41.37.09.06.18.12.28.19.39.25.72.46.8.81.01.07.02.14,0,.21,0,.04.01.08.14.08"/>
  <path class="cls-1" d="M31.82,59.87c.15.06,2.19.66,2.57.71.66.09,1.36.07,1.89-.39.04-.03.07-.07.11-.1.1-.11.17-.22.22-.34.27-.68-.38-1.53-2.44-2.03-2.54-.61-6.4-.7-9.1.09-1.53.45-2.16,1.09-2.15,1.73,0,.17.05.34.15.51h0c.17.31.48.6.9.86.2.12.43.23.68.34h0c.44.18.95.32,1.51.44,1.52.32,3.35.41,4.93.33,2.29-.13,2.12-.83,1.62-1.12-.11-.06-.68-.36-1.09-.67-.3-.23-.1-.47.2-.34"/>
  <path class="cls-1" d="M33.54,60.98s.03.09.04.14c.03.13.03.26,0,.4-.19.74-1.19.97-2.08,1.05h23.05c.67-.46,1.31-.94,1.94-1.45h-22.39c-.14-.03-.34-.08-.55-.14"/>
  <path class="cls-1" d="M26.04,62.25c-.59-.12-1.13-.28-1.58-.45h-.02s-.03-.02-.03-.02c-.28-.11-.53-.24-.74-.37-.15-.09-.29-.19-.42-.29h-3.77c.63.51,1.27.99,1.94,1.45h6.92c-.82-.06-1.6-.16-2.29-.31"/>
  <path class="cls-1" d="M42.72,54.39c-.09-.27-.06-.58.09-.81.09-.14.23-.26.41-.36.16-.09.36-.16.58-.23H12.53c.29.49.59.97.9,1.45h29.31s-.01-.03-.02-.05"/>
  <path class="cls-1" d="M53.7,53.46c1.18.3,2.07.62,2.69.98h6.13c.31-.47.61-.96.9-1.45h-12.11c.86.12,1.68.28,2.4.46"/>
  <path class="cls-1" d="M57.45,55.93c-.04.3-.2.59-.49.88l-.1.09c-.1.09-.21.17-.33.25h3.98c.39-.47.77-.95,1.14-1.45h-4.2c0,.07,0,.15,0,.23"/>
  <path class="cls-1" d="M25.27,57.15c1.26-.32,2.77-.5,4.41-.5s3.28.18,4.61.5h5.61c-.12-.32-.1-.6-.06-.78.06-.26.19-.48.36-.67H14.31c.36.49.74.98,1.14,1.45h9.83Z"/>
  <path class="cls-1" d="M22.33,59.55c0-.34.09-.74.44-1.14h-6.21c.47.5.95.98,1.46,1.45h4.35c-.02-.1-.04-.2-.04-.31"/>
  <path class="cls-1" d="M51.82,58.85l-.2.04c-1.76.35-3.58.54-5.27.54s-3.85-.19-5.23-1.02h-4.31c.11.12.2.24.26.37.18.34.22.72.11,1.07h20.74c.5-.47.99-.95,1.46-1.45h-5.79c-.55.16-1.14.31-1.78.44"/>
  <path class="cls-1" d="M45.7,55.8c-.29,0-.66-.06-1.05-.12-.42-.07-.9-.14-1.39-.16-.12,0-.24,0-.37,0-.59,0-1.14.07-1.57.17-.6.14-1.52.92-.47,1.81.88.88,2.83,1.37,5.5,1.37,1.65,0,3.43-.18,5.16-.53l.19-.04c2.21-.46,3.99-1.14,4.76-1.82l.09-.08c.19-.19.3-.37.32-.54.04-.29-.22-1.05-3.31-1.84-1.85-.47-4.33-.76-6.48-.76h-.12c-1.94,0-3.01.22-3.45.47-.1.06-.17.12-.21.18-.04.06-.07.18-.03.3.31.74,1.53.92,2.65.92.63.03.6.3.48.44-.18.22-.48.24-.69.24"/>
  <path class="cls-1" d="M62.56,46.58l-7.29-.63c-.02.19-.04.38-.06.57l7.29.63c.02-.19.05-.38.07-.57"/>
  <path class="cls-1" d="M62.33,40.15l-7.22,1.28c.03.19.06.38.08.57l7.23-1.28c-.03-.19-.06-.38-.09-.57"/>
  <path class="cls-1" d="M53.78,37.12c.08.17.16.35.24.53l6.66-3.12c-.08-.18-.16-.35-.24-.53l-6.66,3.12Z"/>
  <path class="cls-1" d="M57.37,29c-.12-.15-.24-.3-.36-.45l-5.64,4.74c.12.15.24.3.36.46l5.64-4.75Z"/>
  <path class="cls-1" d="M52.97,24.67c-.15-.12-.31-.23-.47-.35l-4.29,6c.16.11.31.23.46.35l4.29-6Z"/>
  <path class="cls-1" d="M44.98,28.46l2.67-6.88c-.18-.07-.36-.14-.54-.21l-2.67,6.87c.18.07.36.14.53.22"/>
  <path class="cls-1" d="M13.67,47.15l7.19-.62c-.02-.19-.05-.38-.07-.57l-7.19.62c.02.19.04.38.06.57"/>
  <path class="cls-1" d="M20.97,41.43l-7.13-1.27c-.03.19-.07.38-.09.57l7.13,1.27c.03-.19.05-.38.09-.57"/>
  <path class="cls-1" d="M15.49,34.55l6.58,3.08c.08-.18.16-.35.24-.53l-6.58-3.08c-.08.17-.16.35-.24.53"/>
  <path class="cls-1" d="M24.72,33.27l-5.58-4.7c-.13.15-.24.3-.36.45l5.58,4.7c.12-.15.24-.31.36-.46"/>
  <path class="cls-1" d="M27.22,30.81c.15-.12.3-.24.45-.36l-4.34-5.89c-.15.12-.3.24-.45.36l4.34,5.89Z"/>
  <path class="cls-1" d="M30.92,28.55l-2.97-6.7c-.18.08-.35.16-.53.24l2.98,6.7c.17-.09.35-.17.52-.25"/>
  <path class="cls-1" d="M55.35,44.27l12.73-.56c0-.19,0-.39-.01-.58l-12.73.56c0,.19.01.39.01.58"/>
  <path class="cls-1" d="M54.75,39.79l12.18-3.85c-.05-.18-.11-.37-.16-.55l-12.17,3.85c.06.18.11.37.16.56"/>
  <path class="cls-1" d="M53,35.62l10.78-6.88c-.1-.16-.21-.32-.31-.49l-10.77,6.87c.11.16.2.33.3.49"/>
  <path class="cls-1" d="M58.87,22.62c-.14-.13-.28-.27-.42-.4l-8.63,9.43c.14.13.28.27.42.4l8.63-9.43Z"/>
  <path class="cls-1" d="M52.8,18.1c-.17-.09-.34-.19-.5-.28l-6.01,11.29c.17.09.33.19.5.29l6.01-11.29Z"/>
  <path class="cls-1" d="M20.74,43.69l-12.63-.56c0,.19-.01.38-.02.58l12.63.56c0-.19,0-.39.01-.58"/>
  <path class="cls-1" d="M21.49,39.22l-12.08-3.82c-.05.18-.11.37-.16.56l12.09,3.82c.05-.19.1-.37.16-.56"/>
  <path class="cls-1" d="M23.39,35.11l-10.7-6.83c-.1.16-.21.32-.31.49l10.71,6.83c.1-.16.2-.33.3-.49"/>
  <path class="cls-1" d="M26.08,31.82l-8.74-9.23c-.14.13-.28.26-.42.4l8.74,9.24c.14-.14.27-.27.41-.41"/>
  <path class="cls-1" d="M22.34,18.71l6.42,11.01c.16-.11.32-.21.49-.3l-6.42-11c-.16.1-.33.2-.49.3"/>
  <path class="cls-1" d="M17.56,19.08l-.43-.38-.69.79c-.14.16-.21.34-.2.55,0,.21.08.38.23.51.18.16.45.29.8.37.34.08.74.1,1.19.07l.03-.26c-.27,0-.53-.04-.76-.1-.23-.07-.4-.16-.53-.27-.12-.1-.18-.23-.2-.38-.02-.15.02-.29.12-.4l.44-.51Z"/>
  <path class="cls-1" d="M20.87,12.6c.09-.05.19-.08.29-.09.1-.01.19,0,.28.03l1.03.44c.16-.09.01-.26-.45-.48-.24-.12-.4-.19-.48-.22-.22-.1-.45-.16-.68-.17-.23,0-.42.03-.57.12-.09.06-.15.12-.2.18l.55.39c.07-.08.14-.14.23-.19"/>
  <path class="cls-1" d="M23.75,11.5c.09-.05.18-.09.26-.13.14-.06.32-.09.55-.08.25.01.5.06.76.14l.36-.16-.95-.84c-.14-.15-.3-.25-.47-.29-.17-.05-.33-.03-.49.03-.17.08-.3.16-.37.24l.55.38s.03-.08.07-.12c.06-.05.12-.09.18-.11.08-.03.18-.03.29.01.13.05.25.13.36.25l.57.42-.06.03c-.55-.16-.97-.27-1.26-.32-.33-.06-.57-.06-.71,0-.07.02-.13.06-.19.1-.05.03-.08.07-.11.11l.51.44s.07-.08.14-.13"/>
  <path class="cls-1" d="M17.43,17.85s.06.01.09.02c.04.02.08.05.13.09.1.09.12.24.06.43-.06.18-.17.35-.33.51.37.24.75.38,1.14.41.38.03.67-.06.88-.26.1-.09.17-.2.23-.33.07-.14.11-.28.12-.44l.44.47.74-.16-2.02-2.13c.3-.27.61-.53.92-.78l1.56,1.98.77-.06-1.82-2.32c.34-.26.68-.52,1.03-.77l.48.74-.27.18s-.07.07-.07.11c-.02.05,0,.09.02.13.08.13.28.22.6.28.32.06.54.05.67-.03.05-.03.08-.07.1-.13,0-.06,0-.11-.04-.16l-.96-1.47c.24-.16.48-.32.72-.47l1.43,2.2.73-.05-1.61-2.48c.74-.45,1.49-.86,2.27-1.24l.4.8-1.28.64c-.07.04-.12.09-.14.17-.03.08-.02.15.01.22.08.16.23.3.45.4.22.11.4.14.51.08.04-.02.06-.05.07-.08.02-.04.02-.08,0-.11l-.11-.22s-.02-.09,0-.13c0-.05.02-.08.06-.09l.71-.35.51,1.02.74.03-1.32-2.64c.82-.38,1.65-.72,2.5-1.01l.35.96c-.22-.13-.44-.22-.63-.27-.2-.05-.35-.05-.46-.01-.24.08-.42.23-.54.45-.12.21-.13.43-.05.65.09.23.29.43.61.59.32.16.59.19.82.11.1-.04.2-.11.3-.22.11-.1.2-.22.29-.38l.21.57.74.15-.47-1.28c.06-.17.14-.31.25-.42.11-.12.22-.2.34-.25.07-.02.13-.02.19.02.07.03.11.09.14.16.05.13.07.29.06.47-.02.19-.06.39-.13.58l.67.17c.1-.41.09-.79-.03-1.13-.09-.24-.27-.44-.54-.61-.28-.17-.51-.22-.69-.16-.09.03-.18.08-.26.15-.09.07-.18.16-.27.28l-.28-.78c.63-.2,1.27-.4,1.92-.56l-.14-.13h0l-.03-.02-.4-.35c-6.29,1.68-11.76,5.37-15.68,10.33l.66.18c.62-.77,1.28-1.51,1.98-2.21M28.63,12.53c-.14.14-.26.22-.38.27-.09.03-.17.03-.24,0-.08-.03-.13-.08-.16-.15-.05-.15-.04-.28.03-.41.06-.14.16-.23.29-.28.11-.04.24-.05.4-.05.14,0,.29.05.43.13-.11.2-.23.36-.36.5M18.42,16.89l.8.84c-.03.25-.07.47-.14.65-.06.18-.14.31-.24.41-.09.09-.2.14-.32.17-.12.03-.24.03-.36-.01-.01-.01-.02-.03-.02-.04,0-.02,0-.03,0-.04.15-.2.25-.4.3-.58.05-.2.03-.33-.05-.4-.06-.07-.16-.13-.3-.18-.12-.04-.27-.06-.44-.09.25-.25.51-.49.77-.73"/>
  <path class="cls-1" d="M27.05,9.41c.1-.03.2-.04.31-.03.1,0,.19.04.27.09l.91.66c.18-.05.07-.24-.34-.57-.2-.17-.34-.27-.42-.32-.19-.15-.4-.26-.63-.32-.22-.06-.42-.06-.59-.01-.1.04-.17.08-.23.13l.45.5c.08-.06.17-.1.27-.13"/>
  <path class="cls-1" d="M39.57,12.62c.12-.07.26-.09.41-.08l.36.04-.24-.46-.32-.03c-.2-.02-.39.01-.54.11-.16.1-.24.23-.27.38-.03.28.05.55.25.79.21.25.45.39.73.42.19.02.36.01.5-.03.15-.03.29-.09.42-.18l-.23-.53c-.15.1-.31.18-.49.24-.17.05-.33.07-.47.05-.1-.01-.18-.06-.24-.14-.06-.09-.09-.18-.08-.29,0-.12.08-.22.2-.29"/>
  <path class="cls-1" d="M45.3,11.35c.13-.08.27-.11.41-.07l.66.17.15-.55-1.01-.27c-.21-.06-.4-.03-.58.06-.19.1-.31.24-.36.43-.07.24-.06.53.02.88.08.34.24.71.46,1.1l.24-.08c-.12-.25-.2-.49-.25-.73-.04-.23-.03-.43,0-.59.04-.15.12-.26.25-.35"/>
  <path class="cls-1" d="M57.75,16.73c-.23.05-.36.21-.41.56-.06.33-.02.71.12,1.13-.28.08-.54.07-.78-.03.05-.1.07-.19.07-.25,0-.08,0-.14-.04-.18-.06-.06-.14-.09-.25-.08-.11.01-.2.07-.29.15-.09.09-.11.2-.08.35.03.15.12.28.25.39l-.21,1.01.35.1.03-.99c.43.11.82.14,1.17.09.35-.04.63-.16.83-.36.37-.39.54-1.11.04-1.68-.16-.17-.42-.28-.82-.22M58.33,17.65c-.02.14-.09.27-.19.38-.09.1-.18.18-.26.23-.08.05-.15.08-.21.09-.05-.22-.07-.41-.06-.59,0-.17.05-.29.13-.37.08-.09.17-.14.27-.16.1-.02.17,0,.23.06.08.09.12.21.1.36"/>
  <path class="cls-1" d="M56.88,21.44c-.2-.02-.37-.12-.51-.29-.26-.29-.45-.57-.57-.84-.13-.26-.18-.51-.17-.74l-.25-.02c-.02.34.03.68.14,1.01.13.36.33.69.59.99.19.22.41.36.66.41.25.05.47,0,.64-.15.15-.13.24-.33.26-.61.02-.28-.03-.5-.16-.65-.07-.08-.16-.14-.27-.18-.12-.05-.24-.09-.39-.1l-.02.58c.12-.01.22,0,.32.02.11.03.19.07.23.12.04.05.07.11.07.17.01.06,0,.11-.05.14-.14.12-.32.16-.52.13"/>
  <path class="cls-1" d="M34,11.84c.32.22.63.32.95.29.22-.02.4-.12.55-.31.14-.19.2-.4.18-.64-.01-.1-.03-.19-.07-.27-.04-.08-.09-.15-.15-.23.14.1.28.16.4.2.12.05.24.06.35.05.13-.02.22-.05.28-.1l.1,1,.68.3-.28-2.92c.39-.02.77-.03,1.16-.03.06,0,.12,0,.18,0l-.05,1.17h-.22c-.05-.01-.09,0-.12.04-.04.03-.06.07-.06.12,0,.11.11.29.34.55.23.25.4.38.51.39.04,0,.07-.01.1-.05.04-.05.05-.1.06-.15v-.29s1.09.05,1.09.05l-.04.78.63.46.14-2.96c.9.08,1.8.2,2.67.36l-.08.48-.92-.15c-.22-.04-.43,0-.61.11-.18.11-.28.27-.32.46-.05.28-.01.58.09.9.09.33.26.66.5,1.01l.24-.11c-.15-.21-.26-.42-.33-.64-.06-.23-.07-.45-.03-.65.03-.16.11-.28.24-.37.12-.1.26-.13.42-.1l.63.11-.25,1.48.56.53.49-2.93c1.68.34,3.3.83,4.86,1.45l-.33.89c-.08-.24-.2-.46-.35-.63-.16-.18-.33-.31-.5-.37-.26-.1-.51-.11-.75-.03-.24.08-.4.23-.48.45-.1.26-.06.57.12.93.17.37.39.6.65.69.14.05.3.07.46.07.16,0,.32-.05.48-.13l-.2.53.45.63,1.04-2.78c.4.17.8.35,1.2.54l-.56,1.05-.19-.1s-.09-.03-.13,0c-.05,0-.08.03-.11.08-.05.1-.03.31.08.64.1.33.2.52.3.57.03.02.07.01.11,0,.05-.03.09-.07.12-.11l.13-.25.95.5-.37.7.37.68,1.38-2.63c.34.2.68.41,1.02.62l-1.4,2.14.3.71,1.63-2.5c.7.47,1.38.97,2.04,1.5l-.56.72-1.13-.88c-.07-.05-.13-.07-.21-.06-.08.01-.14.05-.19.11-.11.14-.17.34-.17.58,0,.25.05.42.15.49.03.03.07.04.1.03.04,0,.07-.01.1-.05l.15-.2s.07-.06.11-.06c.04-.02.08-.01.11.01l.62.49-.7.9.29.68,1.83-2.34c.27.23.53.45.79.69l.43-.45c-5.27-4.76-12.25-7.67-19.9-7.67-.88,0-1.75.04-2.62.11l.4.6c.14-.01.28-.02.42-.03l.08.84c-.06.09-.13.15-.21.2-.08.05-.17.08-.26.09-.18.02-.33.02-.43.01-.11,0-.2-.02-.26-.05.09-.08.16-.18.21-.29.05-.12.06-.23.05-.34-.02-.23-.18-.44-.46-.63-.28-.19-.56-.28-.84-.25-.14.01-.27.06-.42.14-.15.07-.28.17-.4.3l.37.43c.12-.13.26-.24.43-.34.15-.08.29-.13.43-.14.12-.01.22.01.31.07.09.07.14.15.15.25.01.15-.01.29-.08.41-.03.11-.12.18-.26.2-.08-.02-.18-.01-.29.01-.13.04-.25.09-.37.16l.3.51c.23-.05.46-.15.69-.32.05.04.09.09.12.15.03.05.05.11.05.19.02.17-.02.34-.13.48-.12.14-.27.22-.44.24-.22.02-.44-.04-.67-.18-.23-.15-.43-.37-.59-.64l-.2.16c.22.4.5.72.82.94M47.68,12.63c-.23.02-.44,0-.62-.07-.13-.05-.22-.13-.29-.24-.06-.11-.08-.21-.04-.31.05-.15.19-.25.43-.31.24-.05.47-.04.69.05.11.04.21.12.32.24.1.12.18.26.24.43-.25.11-.49.18-.74.21M51.2,12.29c.32.16.63.33.95.5l-.56,1.07-.95-.5.56-1.07ZM38.95,9.19c.36.01.72.03,1.07.05l-.06,1.2-1.07-.05.06-1.19Z"/>
  <path class="cls-1" d="M57.58,20.32l.2.71,2.09-2.07c.16.17.32.35.47.53l.18-.75c-.37-.42-.75-.84-1.15-1.24l-.44.45c.17.18.34.36.51.54l-1.86,1.83Z"/>
  <rect class="cls-1" x="58.87" y="20.84" width=".82" height=".82"/>
  <rect class="cls-1" x="59.77" y="19.94" width=".82" height=".82"/>
  <path class="cls-1" d="M28.61,95.53l1.06.59v-4.96h1.06l-.53-.95H3.72l.59.95h.24v2.19l-1.18-.53c.11-.11.2-.25.26-.42.06-.17.09-.35.09-.52,0-.42-.2-.84-.59-1.25-.4-.42-.8-.64-1.18-.64s-.7.11-.97.34c-.26.24-.39.51-.39.84,0,.27.13.54.36.83.24.27.57.5.99.71-.39.26-1.04.59-1.95,1l.83.71c1.01-.5,1.75-.93,2.19-1.3l.95.47-2.78,1.71.77.65,2.6-1.77v1.36l1.06.59v-4.96h6.33v.83h-1.24c-.44,0-.8.15-1.09.45-.3.32-.45.68-.45,1.09,0,.5.26,1.05.81,1.63.55.57,1.07.85,1.55.85.02,0,.09-.01.2-.06l.15-.06c-.13.47-.32.83-.58,1.11-.24.28-.5.42-.78.42-.14,0-.25-.05-.33-.14-.09-.08-.13-.19-.14-.33,0-.14.06-.27.19-.38.15-.13.32-.22.52-.27l-.95-.59c-.14.03-.27.09-.39.19-.11.09-.18.18-.2.28-.39,0-.69-.06-.89-.18.2-.07.36-.19.47-.37.12-.18.18-.38.18-.58,0-.28-.09-.52-.28-.71-.17-.2-.39-.3-.66-.3-.33,0-.61.09-.84.3-.23.21-.34.47-.34.77,0,.41.23.76.68,1.05.45.28.99.42,1.63.42-.09.3.07.59.46.88.4.29.86.43,1.37.43.3,0,.59-.11.87-.33.28-.22.5-.53.66-.91l.47,1,.65-.3-.89-1.48c.17-.05.29-.13.38-.26.11-.14.16-.29.16-.45,0-.22-.1-.45-.3-.71-.2-.24-.39-.36-.59-.36-.21,0-.4.06-.54.16-.15.11-.22.25-.22.43,0,.15.06.33.18.53-.21.12-.39.18-.53.18-.35,0-.64-.13-.87-.39-.24-.27-.36-.59-.36-.97,0-.3.09-.56.28-.79.18-.22.4-.33.67-.33h2.01v-1.77h1.69v4.25l1.06.71v-4.96h4.85v1.59c-.27-.33-.57-.59-.91-.78-.36-.19-.68-.28-.98-.28-.46,0-.86.12-1.17.39-.32.26-.48.58-.48.97,0,.46.24.92.72,1.37.48.46.95.7,1.4.7.25,0,.5-.05.74-.17.24-.1.47-.26.67-.48v.94l1.06.71v-4.96h1.82v4.25l1.06.71v-4.96h4.05v1.53h-2.36c-.13,0-.24.05-.33.14-.1.09-.14.21-.14.33,0,.3.12.61.37.92.25.33.48.49.7.49.07,0,.12-.02.15-.07.06-.04.08-.09.08-.16v-.41c0-.08.03-.14.08-.2.04-.06.09-.09.15-.09h1.3v1.89ZM2.74,92.06c-.1.2-.22.33-.38.4-.21-.07-.38-.2-.51-.38-.14-.17-.2-.36-.2-.57,0-.16.07-.31.2-.45.15-.14.32-.2.51-.2.15,0,.27.05.38.15.1.11.15.23.15.38,0,.25-.05.47-.15.66M7.61,95.5c-.1-.1-.15-.23-.15-.38s.05-.28.15-.38c.1-.1.23-.16.38-.16s.28.05.38.16c.1.1.15.23.15.38s-.05.28-.15.38c-.1.1-.23.15-.38.15s-.28-.05-.38-.15M19.65,94.04c-.35.16-.68.25-.99.25-.23-.01-.42-.08-.59-.2-.16-.13-.24-.28-.24-.45,0-.26.16-.51.5-.73.34-.22.7-.33,1.1-.33.19,0,.4.06.63.19.22.12.43.3.61.52-.32.31-.65.57-1.02.75"/>
  <path class="cls-1" d="M29.71,96.77c-.34-.28-.61-.41-.8-.41-.16,0-.32.03-.46.07-.12.04-.24.11-.37.23l.41.65c.1-.08.2-.13.28-.17.11-.04.21-.07.31-.07.27,0,.8.44,1.61,1.29l.64.66.36-.29c-.47-.51-1.13-1.17-1.97-1.95"/>
  <path class="cls-1" d="M51.31,90.22h-7.49l.59.94h1.18v2.01h-1.65v-1.71c0-.37-.18-.74-.54-1.1-.37-.37-.74-.55-1.11-.55-.31,0-.57.09-.79.3-.22.22-.33.48-.33.76,0,.1,0,.19.03.29l-.53-.93h-6.86l.53.94h4.31v.77c-.14,0-.29.07-.47.2-.18.14-.36.33-.53.57-.22-.27-.45-.47-.68-.61-.24-.14-.46-.21-.67-.21-.39,0-.72.14-1,.43-.28.27-.41.61-.41.99,0,.41.18.84.53,1.3.34.47.83.94,1.48,1.42l.3-.36c-.41-.35-.72-.69-.94-1.01-.22-.36-.33-.67-.33-.93,0-.29.08-.53.24-.71.16-.2.35-.3.57-.3.13,0,.26.04.38.11.12.06.23.16.33.31-.24.5-.37.82-.41.94l.95.41c.13-.53.32-.97.59-1.32.26-.34.53-.51.83-.51.16,0,.31.05.42.14.11.09.16.2.16.33.02.25-.11.54-.37.87-.25.34-.6.66-1.05.96l.89.83c.38-.4.67-.8.87-1.18.2-.39.31-.74.31-1.06,0-.36-.08-.69-.25-.97-.15-.28-.36-.47-.64-.57v-.83h1.49c.06.28.21.53.45.76.34.32.75.52,1.23.6v.65h-.36c-.11,0-.2.03-.28.1-.08.07-.12.16-.13.26,0,.24.2.53.57.89.37.35.67.53.91.53.1,0,.19-.05.26-.14.06-.09.09-.2.09-.33v-.36h1.65v1.42l1.06.59v-4.96h4.3v.83h-1.54c-.38,0-.7.11-.97.34-.26.24-.39.52-.39.84,0,.47.13.95.39,1.44.24.5.61,1.01,1.09,1.51l.35-.24c-.31-.3-.54-.62-.71-.96-.16-.36-.24-.7-.24-1.05,0-.27.1-.49.28-.66.17-.19.39-.28.66-.28h1.06v2.48l1.06.71v-4.96h1.06l-.53-.94h-1.24ZM42.88,92.11c-.19-.05-.35-.16-.47-.36-.12-.17-.18-.39-.18-.65,0-.18.05-.34.13-.46.08-.12.17-.19.28-.19.08,0,.13.05.17.14.05.08.07.19.07.33v1.18Z"/>
  <path class="cls-1" d="M51.05,89.15c-.24-.36-.41-.6-.51-.71-.23-.33-.51-.6-.84-.8-.32-.2-.63-.29-.92-.29-.17.01-.32.05-.43.09l.47,1.01c.16-.06.32-.08.48-.08.17,0,.34.03.49.11.16.06.29.15.38.27l1.12,1.48c.32,0,.23-.36-.26-1.06"/>
  <path class="cls-1" d="M74.54,95.41l1.06.71v-4.96h1.06l-.53-.94h-19.99l.53.94h4.06v.82h-3.25l-.18.36c.49.14.89.36,1.2.66.3.32.45.65.45.99,0,.15-.07.28-.21.4-.17.13-.36.22-.55.25-.05-.12-.14-.22-.26-.3-.12-.08-.23-.12-.33-.12-.16,0-.28.06-.38.16-.1.12-.15.26-.15.43,0,.24.12.45.37.61.24.18.54.27.88.27l.71,1.59.53-.3-.94-1.36c.33-.06.61-.19.85-.4.22-.2.33-.45.33-.72,0-.29-.09-.58-.26-.86-.16-.28-.38-.53-.68-.73h1.89v2.6l1.06.59v-4.96h1.82v4.25l1.06.71v-4.96h4.05v1.53h-2.36c-.13,0-.24.05-.33.14-.1.1-.14.21-.14.33,0,.3.12.61.37.92.25.33.48.5.7.5.07,0,.12-.03.15-.07.05-.04.08-.09.08-.16v-.41c0-.08.03-.14.08-.2.04-.06.09-.09.15-.09h1.3v1.89l1.06.59v-4.96h1.9v2.01h-.35c-.09,0-.16.03-.2.09-.06.05-.09.11-.09.2,0,.18.2.47.6.88.4.4.69.6.88.6.06,0,.11-.03.15-.09.06-.08.08-.16.08-.26v-.47h1.77v1.3ZM72.77,91.16h1.77v2.01h-1.77v-2.01Z"/>
  <path class="cls-1" d="M75.64,96.77c-.34-.28-.61-.41-.8-.41-.16,0-.32.03-.46.07-.12.04-.24.11-.36.23l.41.65c.1-.08.2-.13.28-.17.11-.04.21-.07.31-.07.27,0,.8.44,1.61,1.29l.64.66.35-.29c-.47-.51-1.13-1.17-1.97-1.95"/>
  <path class="cls-1" d="M33.77,31.7s0,0,0,0c-.26.49-.18.89-.05,1.16.17.36.53.65,1.08.86v.03c0,.63.6,1.14,1.62,1.4.05.49.56,1.14,1.59,1.14.14,0,.28-.01.48-.05.57-.17.95-.6.99-1.09,1.02-.26,1.62-.77,1.62-1.4,0-.06,0-.13-.02-.19.71-.41,1.1-.93,1.07-1.44,0-.15-.05-.29-.12-.41,1.05-1.05,1.64-2.08,1.92-3.04h0c.02-.07.04-.13.06-.2.08-.38.14-.81.15-.89.07-.82-.04-1.65-.31-2.41l-.28-.64c-.24-.46-.53-.87-.88-1.22-.09-.09-.18-.17-.26-.26h-.01s-.35-.35-.35-.35c-.1-.08-.19-.17-.28-.25-1.25-1.14-2.15-1.96-1.86-3.91.33-1.81-.25-3.69-.99-4.17-.05-.03-.11-.06-.16-.07-.03-.28-.06-.45-.09-.45-.2-.37-.53-.48-.74-.51-.05,0-.1,0-.15,0-.36,0-1.01.15-1.28,1.19-.17.68-.16,1.6-.15,2.49,0,.18,0,.36,0,.5-.07,1.52-1.48,3.39-2.53,4.67,0,0-.81.87-1.5,2.12-.52.94-2.58,4.73,1.41,7.37M38.07,35.5c-.41,0-.78-.23-.78-.49,0-.04.01-.09.03-.13.12.01.25.03.37.03.12,0,.25.01.38.01.25,0,.5-.01.74-.04.02.04.03.09.03.13,0,.26-.36.49-.78.49M38.89,34.45c-.16.02-.32.04-.49.05-.11,0-.22,0-.34,0-.28,0-.55-.02-.82-.05-.99-.13-1.57-.5-1.57-.77,0-.02,0-.04.01-.06.74.15,1.56.19,2.11.19,1.07,0,2.06-.12,2.59-.31.05.06.08.12.08.18,0,.27-.59.63-1.58.77M34.22,23.08l.04-.05c1.34-1.58,2.88-3.63,2.96-5.45,0-.17,0-.35,0-.54-.01-.84-.02-1.7.12-2.27.13-.51.33-.57.47-.57.02,0,.05,0,.06,0,.1.01.16.15.18.4.01.16-.01.61-.03,1.1-.05,1.08-.12,2.56.03,3.2.17.73.5,1.46.83,2.16.42.92.82,1.78.85,2.6.05,1.45-.65,1.57-1.17,1.66-.24.04-.53.09-.53.37,0,.11.09.23.24.23.06,0,.13-.02.23-.04.16-.04.41-.11.69-.11.17,0,.33.02.48.07.45.13.79.45.93.86.12.37.13,1-.53,1.88-.14.18-.44.42-1.13.55-.2.04-.22.16-.21.24,0,.1.09.19.24.19.07,0,.13,0,.2,0,1.03,0,1.8.22,2.18.62.17.18.25.39.24.63-.02.45-.65.63-1.06.74-.29.08-.48.13-.5.33v.1s.14.13.14.13h.09c.06,0,.12-.02.25-.05.28-.08.52-.12.69-.12.08,0,.14,0,.19.02.13.05.15.11.16.15,0,.23-.36.64-1.17.98h-.03s0,.01,0,.01c-.4.17-1.29.28-2.25.28-1.5,0-3.26-.28-3.55-.9-.08-.16-.05-.34.08-.56.03.04.08.08.14.11.99.53,2.31.61,3.02.61.48,0,.83-.04.98-.07.19-.04.48-.1.46-.34-.01-.14-.13-.22-.34-.22-.03,0-.07,0-.11,0-.15,0-.37.02-.63.02-.95,0-1.88-.18-2.94-.57-.52-.16-1.55-.78-1.77-.95-.78-.61-1.21-1.67-1.21-2.92-.08-2.03,1.38-3.76,2.01-4.5"/>
  <path class="cls-1" d="M54.22,48.47l-.73-.19c.34-1.3.5-2.64.5-3.99,0-6.9-4.4-13-10.95-15.16l.24-.72c6.86,2.27,11.47,8.65,11.47,15.88,0,1.42-.18,2.82-.53,4.18"/>
  <path class="cls-1" d="M21.83,48.48c-.35-1.36-.53-2.77-.53-4.19,0-6.85,4.1-12.94,10.45-15.51l.28.7c-6.06,2.45-9.97,8.27-9.97,14.8,0,1.35.17,2.7.51,4l-.74.19Z"/>
  <path class="cls-1" d="M33.94,82.23c-.09,0-.18.03-.26.11-.08.08-.12.17-.13.28-.01.15.05.29.17.42.12.13.28.2.48.24.04-.05.08-.11.09-.18.03-.07.04-.16.05-.27.01-.16-.02-.29-.11-.4-.07-.11-.17-.18-.3-.2"/>
  <path class="cls-1" d="M36.71,83.35c-.23,0-.43.05-.59.16-.17.13-.26.27-.26.43,0,.12.04.22.14.3.09.08.21.12.35.13.19,0,.38-.04.59-.13.19-.08.41-.21.64-.38-.13-.15-.27-.27-.42-.37-.15-.09-.3-.13-.44-.14"/>
  <rect class="cls-1" x="19.48" y="79.35" width="1.17" height="1.13" transform="translate(-62.07 73.43) rotate(-71.39)"/>
  <path class="cls-1" d="M30.53,82.86c-.23-.03-.43,0-.6.1-.18.1-.28.23-.3.4-.02.11.02.22.11.31.09.09.19.15.33.16.18.03.38,0,.59-.06.2-.06.43-.16.67-.31-.11-.16-.24-.3-.38-.41-.14-.11-.28-.17-.43-.19"/>
  <rect class="cls-1" x="61.05" y="77.09" width="1.14" height="1.17" transform="translate(-26.48 32.19) rotate(-24.27)"/>
  <path class="cls-1" d="M58.07,80.53c-.06.12-.08.22-.06.32.07.17.19.28.37.34.2.06.38.06.57-.01.29-.11.5-.28.64-.5.14-.23.17-.45.09-.66-.05-.13-.16-.21-.33-.25-.17-.04-.36-.02-.55.05-.07.09-.21.21-.43.37-.14.1-.24.22-.3.34"/>
  <path class="cls-1" d="M52.8,80.26l.49,1.67c.02.07.06.11.11.14.05.03.11.03.17.01.19-.05.36-.17.49-.33.14-.17.23-.37.26-.6l-.36-1.23-1.17.34Z"/>
  <path class="cls-1" d="M44.32,83.02c-.23.03-.41.11-.56.24-.15.14-.22.3-.2.45.01.12.07.21.18.28.1.07.22.09.36.08.19-.02.37-.09.56-.2.18-.11.37-.26.58-.46-.15-.13-.3-.23-.46-.31-.16-.07-.32-.09-.46-.07"/>
  <path class="cls-1" d="M48.33,81.3l.17.89-1.19.22c-.08.01-.15.05-.19.11-.05.06-.07.13-.05.2.01.07.05.13.12.18.06.05.14.09.25.13.07-.07.16-.13.27-.17.1-.04.23-.08.41-.12l.39.43-.37.07c-.13.03-.24.08-.33.16-.08.08-.11.17-.09.26.01.08.07.14.16.18.09.05.2.06.31.03.28-.05.53-.18.76-.4.23-.22.4-.49.51-.8l-.3-1.56-.82.15Z"/>
  <path class="cls-1" d="M74.13,74.86c-.27-.53-.56-1.08-.78-1.64.53-.38,1.04-.8,1.54-1.25,1.64-1.48.67-3.45-.11-5.04l-.16-.32c-.4-.82-.33-1.63-.26-2.35.06-.67.12-1.3-.3-1.73-.37-.38-1.05-.53-2.18-.47h-.04c-2.42.16-3.92,2.15-4.23,5.62-.2.1-.4.2-.61.29-1.5.69-3.29,1.24-4.97,1.67h0c-.36.08-.65.15-.88.22,0,0-.02,0-.02,0-.27.08-.46.16-.59.24-.95.62-.29,3.12,0,4.06-4.32,3.1-12.47,5.04-21.51,5.04-.32,0-.65,0-.97,0h-.04c-.32,0-.65,0-.97,0-9.04,0-17.18-1.94-21.51-5.04.29-.94.96-3.44,0-4.06-.13-.09-.32-.16-.59-.24,0,0-.02,0-.02,0-.24-.07-.53-.14-.88-.22h0c-1.68-.43-3.48-.98-4.97-1.67-.21-.09-.41-.19-.61-.29-.31-3.47-1.81-5.46-4.23-5.62h-.04c-1.14-.06-1.81.08-2.18.47-.41.43-.35,1.06-.29,1.73.07.71.14,1.52-.26,2.35l-.16.32c-.78,1.58-1.75,3.55-.11,5.04.5.45,1.01.86,1.54,1.25-.22.56-.51,1.11-.78,1.64-.47.92-.96,1.87-1.21,2.93-.09.41-.31,3.67.36,3.91.12.04.35.06.54-.33.69-1.38,1.84-2.84,2.57-2.88.13,0,.33.02.53.33.18.27.34.68.47,1.01.21.52.3.76.58.71.27-.05.27-.36.27-.61,0-1.58.45-3.08.94-4.48,1.11.42,2.22.74,3.31,1.04.03,0,.05.02.08.03l-.08.08c-.32.35-.8.81-.8.81-.34.37-.5.81-.46,1.24.04.42.28.8.66,1.07,6.23,4.43,16.45,7.08,27.35,7.08.32,0,.65,0,.99,0,.34,0,.67,0,.98,0,10.9,0,21.12-2.65,27.35-7.08.38-.27.61-.65.65-1.07.05-.43-.12-.88-.45-1.24,0,0-.48-.47-.8-.81l-.08-.08s.05-.02.08-.03c1.09-.3,2.2-.63,3.31-1.04.48,1.4.93,2.9.93,4.48,0,.25,0,.55.27.61.28.05.37-.19.58-.71.13-.33.3-.74.47-1.01.2-.31.4-.34.53-.33.73.04,1.88,1.5,2.57,2.88.19.39.42.37.54.33.67-.24.45-3.51.36-3.91-.25-1.06-.74-2.01-1.21-2.93M5.54,79.21c-.1-.24-.22-.49-.35-.68-.33-.51-.74-.6-1.02-.58-1.1.07-2.29,1.79-2.91,2.96-.11-.74-.13-2.41,0-2.99.23-1,.71-1.92,1.17-2.81.26-.51.53-1.03.76-1.57,1,.67,2.08,1.24,3.29,1.72-.43,1.24-.83,2.55-.94,3.95M3.58,62.94c.02-.08.07-.31.62-.31,2.55.17,3.42,2.57,3.68,4.76-2.86-1.6-4.48-3.64-4.3-4.45M15.2,73.08c-.06.2-.12.4-.16.6-.05-.04-.09-.07-.14-.11-.56-.45-.89-.75-.75-1.14.1-.29.26-.38.56-.38.11,0,.24.01.39.03.11.01.22.02.33.03M18.26,80.81c-.14-.32-.18-.57-.11-.76.01-.04.05-.06.1-.07.07-.01.13,0,.2.01l.32.11.37-1.11-.62-.2v.03s-.58-.25-.58-.25l-1.29,3.07-.41-.58.44-1.05c-.06.03-.12.05-.2.06-.06,0-.12,0-.17-.02-.05-.02-.1-.06-.15-.11-.06-.07-.11-.13-.14-.21,0,.12-.03.22-.07.32-.09.21-.24.36-.45.43-.2.09-.41.09-.62,0-.29-.12-.52-.4-.67-.82-.16-.43-.22-.94-.2-1.51l.22-.03c-.02.4.05.76.19,1.06.14.3.33.51.59.61.14.06.28.07.42.03.14-.05.24-.14.29-.26.03-.07.04-.16.04-.26,0-.09-.03-.17-.07-.25-.2.02-.43,0-.72-.05l-.06-.64c.24.1.48.13.72.1.22-.04.37-.14.44-.31.04-.08.04-.15,0-.23-.03-.08-.09-.13-.16-.16-.18-.07-.36-.11-.56-.12-.18,0-.36.04-.51.12l-.14-.63c.15-.06.32-.09.52-.09.18,0,.37.05.57.13.19.08.35.3.49.66.13.36.16.63.08.82-.04.09-.1.17-.19.23-.09.06-.18.11-.3.14.06.08.1.21.13.38.06.06.14.11.24.15.12.05.23.06.35.05.13-.02.23-.07.33-.14l.47-1.12-.49-.2-.17-.57,1.67.7,3.41,1.14v.02s3.39.9,3.39.9l.21.53-.62-.17-.86,3.22-.49-.52.45-1.68-1.13-.3c-.09-.02-.18,0-.27.07-.09.08-.15.19-.19.32-.06.23-.06.48,0,.74.06.26.17.51.34.76l-.27.13c-.24-.44-.42-.84-.53-1.18-.11-.35-.13-.62-.08-.82.06-.21.17-.38.34-.49.17-.12.34-.15.52-.1l1.39.37.17-.66-2.21-.59h0s-.09-.03-.09-.03h-.04s-.47-.17-.47-.17l-.94,2.81.07.02.18.49-.54-.16c-.13-.04-.26-.02-.39.07-.13.08-.21.2-.25.36-.03.09-.02.19.04.29.05.09.12.15.22.19.14.04.3.05.46.03.17-.02.33-.07.49-.15l.2.53c-.14.07-.31.1-.5.09-.19,0-.38-.03-.57-.08-.2-.06-.36-.24-.49-.54-.13-.3-.16-.56-.09-.8.05-.18.16-.31.33-.39.1-.05.22-.07.33-.06l-.08-.1.4-1.18-1.08-.36-.12.36c-.03.08-.07.14-.13.18-.07.04-.13.05-.19.03M38.21,82.28l-.07,3.33-.6-.39v-.76c-.13.12-.28.21-.45.26-.16.07-.31.1-.45.1-.28,0-.57-.14-.85-.41-.28-.27-.42-.53-.41-.78,0-.22.1-.4.28-.56.19-.15.42-.23.68-.22.23,0,.45.07.67.21.22.13.41.31.57.53l.03-1.32-2.47-.05v-.02s-.81-.06-.81-.06c.18.15.32.31.4.5.1.2.14.4.12.6-.02.25-.12.49-.29.71-.17.22-.4.4-.68.54l.73.96-.32.24-.64-1.11s-.07.03-.11.03c-.03,0-.08,0-.16,0-.14,0-.27-.09-.41-.23-.12-.15-.19-.29-.19-.43,0-.09.04-.17.11-.24.06-.06.13-.09.22-.08.08,0,.16.04.26.1.09.07.16.15.21.24.1-.03.2-.09.31-.19.11-.09.19-.2.26-.34-.38-.07-.68-.2-.88-.4-.22-.2-.32-.42-.31-.66,0-.06.02-.12.05-.18.03-.05.07-.1.14-.16l-.39-.03v.02s-.63-.08-.63-.08l-.43,3.31-.55-.45.1-.75c-.16.11-.32.17-.49.21-.16.05-.32.07-.46.05-.28-.04-.55-.2-.8-.5-.25-.3-.36-.57-.33-.83.03-.22.14-.39.34-.52.21-.13.44-.18.7-.15.23.03.44.13.64.28.2.15.37.35.5.59l.17-1.31-2.45-.32-.02-.03-.43-.08-.58,3.28-.53-.48.51-2.91-.6-.1-.26-.51,1.12.2c-.06-.18-.1-.32-.13-.43-.03-.12-.03-.22-.02-.29.05-.31.22-.55.49-.73.27-.18.57-.24.9-.18.26.04.53.24.83.58.31.36.59.81.87,1.37l-.17.09c-.17-.41-.39-.75-.66-1.02-.26-.26-.51-.41-.77-.46-.25-.04-.49,0-.71.15-.21.14-.33.33-.38.58-.03.17-.04.3-.03.38l.48.09.02.04,3.46.45h0l2.51.19.02.03,3.5.07.33.46h-.64ZM60.98,72.09c.15-.02.28-.03.39-.03.3,0,.46.09.56.38.14.39-.19.69-.75,1.14-.05.03-.09.07-.14.11-.05-.2-.11-.4-.16-.6-.1-.34-.21-.68-.22-.97.11,0,.22-.02.33-.03M61.71,79.28c.04.08.05.15.03.22-.02.08-.06.13-.11.15-.18.08-.42.05-.73-.08-.32-.14-.52-.3-.6-.49-.02-.04,0-.08.03-.12.04-.06.09-.1.15-.13l.31-.14-.48-1.07-.58.26h.01s-.12.05-.12.05l-.05.02h0l-1.05.4c.16.09.28.18.38.29.1.1.17.2.21.3.03.09.03.18,0,.3-.03.11-.08.22-.17.33.32-.06.6-.04.84.07.26.1.42.26.5.47.11.28.07.57-.09.86-.18.3-.45.52-.79.65-.3.11-.67.06-1.09-.15-.42-.22-.69-.49-.82-.82-.06-.15-.04-.32.07-.5.11-.19.27-.35.49-.48.17-.1.3-.23.4-.39.09-.15.11-.28.07-.4-.04-.1-.09-.18-.15-.25-.05-.07-.1-.12-.17-.16l-1.61.61h-.01s-.44.14-.44.14l1.07,3.16-.69-.16-.95-2.8-.42.14.02.02-.62.18.93,3.2-.69-.2-.23-.8c-.03.09-.09.16-.18.23-.08.06-.17.11-.27.14-.28.08-.58.05-.91-.08-.34-.12-.53-.29-.6-.5l-.38-1.31-.37.11-.02-.02-.45.11.79,3.24-.68-.22-.7-2.87-.44.11.03.03-.63.12.62,3.27-.67-.26-.1-.52c-.09.16-.23.3-.41.41-.2.12-.41.2-.65.25-.26.05-.54,0-.84-.15-.3-.15-.47-.33-.51-.52,0-.04,0-.09.02-.16.02-.06.06-.12.11-.17-.19-.06-.36-.14-.5-.26-.13-.11-.21-.24-.24-.37-.03-.15,0-.29.11-.41.09-.12.22-.2.39-.23l.74-.14-.07-.37-1.59.3h-.01s-.46.04-.46.04l.39,3.31-.65-.31-.09-.75c-.13.14-.26.24-.42.32-.15.09-.3.14-.44.16-.28.03-.58-.06-.9-.29-.32-.23-.49-.47-.52-.72-.03-.22.04-.41.2-.59.17-.18.38-.28.64-.31.23-.03.46.01.69.12.24.1.45.25.63.45l-.16-1.32-2.45.29-.03-.03-.45.03.23,3.32-.63-.34-.2-2.94-.6.04-.37-.43,1.13-.08c-.1-.15-.18-.28-.22-.39-.05-.11-.08-.2-.09-.27-.02-.31.08-.59.3-.82.22-.24.5-.37.83-.39.26-.02.58.11.94.37.38.27.77.65,1.17,1.12l-.14.12c-.27-.35-.56-.63-.89-.84-.31-.19-.6-.28-.86-.26-.26.02-.47.12-.65.32-.17.19-.25.4-.23.65.01.18.03.3.06.37l.49-.03.03.03,3.47-.41.02.02,3.83-.72h0s1.8-.45,1.8-.45l.03.02,2.94-.85,1.11-.37c-.2-.31-.43-.55-.7-.69-.26-.15-.5-.18-.73-.11-.16.05-.27.16-.35.33-.07.16-.07.33-.01.51.03.07.07.15.13.23.06.07.13.13.2.18l-.21.07c-.13-.08-.24-.18-.34-.31-.1-.14-.17-.28-.22-.42-.08-.23-.07-.46.04-.68.1-.23.26-.38.49-.45.3-.1.62-.03.98.21.36.24.67.59.93,1.06l.43-.14h.02s2.97-1.11,2.97-1.11h.01s3.26-1.46,3.26-1.46l.5.28-.59.26,1.37,3.04-.71-.1-.51-1.14-1.03.47.15.34ZM65.04,80.41l-1.03-.34c-.07-.02-.14-.04-.22-.05-.07,0-.12,0-.15,0-.04.02-.08.05-.12.09-.03.04-.08.11-.14.2l-.37-.22c.05-.07.11-.14.19-.22.06-.06.11-.1.15-.11.05-.02.09-.04.14-.03.04,0,.09,0,.15.02l1.52.42-.11.23ZM68.19,67.39c.26-2.19,1.13-4.59,3.68-4.76.55,0,.61.24.62.31.18.81-1.43,2.85-4.3,4.45M74.82,80.9c-.62-1.16-1.81-2.89-2.91-2.96-.28-.02-.69.07-1.02.58-.12.2-.24.44-.35.68-.11-1.4-.51-2.71-.94-3.95,1.21-.49,2.29-1.05,3.29-1.72.23.54.5,1.06.76,1.57.46.89.93,1.81,1.17,2.81.14.58.12,2.25,0,2.99"/>
  <path class="cls-1" d="M.54,111.47v-6.72c0-.5-.13-.76-.24-.89-.07-.07-.14-.13-.23-.14h3.66c2.67,0,4.9,1.84,4.9,4.54,0,.9-.26,1.76-.7,2.43-.62.87-1.77,1.97-4.56,1.97-1.03,0-2.62-.18-2.77-.18s-.29.01-.39.01c-.06.01-.11.01-.16.01.4-.18.49-.54.49-1.04M1.46,111.29c0,.5.37,1.11,2.1,1.11,3.03,0,4.11-2.04,4.11-4.04,0-2.38-1.67-4.38-4.4-4.38-.87,0-1.47.04-1.81.08v7.23Z"/>
  <path class="cls-1" d="M11.61,112.3c.11-.16.24-.41.24-.83v-6.72c0-.47-.11-.72-.23-.87-.07-.09-.14-.14-.23-.16h4.3l-.07.94c-.01-.06-.03-.11-.06-.17-.05-.1-.11-.2-.21-.27-.23-.16-1.5-.17-1.76-.17h-.82v3.63h1.89c.39,0,.57-.1.73-.2.07-.05.14-.13.19-.21,0,.11-.07,1.13-.07,1.29-.01-.06-.03-.12-.06-.17-.04-.1-.13-.2-.24-.26-.24-.1-.93-.07-1.5-.07h-.93v3.33c0,.4.09.93,1.34.93.87,0,1.16-.16,1.4-.35.13-.1.25-.21.35-.34.06-.06.11-.11.16-.18,0,.12-.1.83-.29.97-.24.16-.44.2-1.63.2-.61,0-1.27-.06-1.71-.1-.24-.04-.47-.01-.69-.01-.11.01-.23.01-.33.01.09-.04.16-.11.23-.22"/>
  <path class="cls-1" d="M18.86,112.3c.11-.16.24-.41.24-.83v-6.72c0-.47-.12-.72-.23-.87-.07-.09-.14-.14-.23-.16h4.3l-.07.94c-.01-.06-.03-.11-.06-.17-.05-.1-.12-.2-.22-.27-.23-.16-1.5-.17-1.76-.17h-.82v3.63h1.89c.39,0,.57-.1.73-.2.07-.05.14-.13.19-.21,0,.11-.07,1.13-.07,1.29-.01-.06-.03-.12-.06-.17-.04-.1-.13-.2-.24-.26-.24-.1-.93-.07-1.5-.07h-.93v3.33c0,.4.08.93,1.34.93.87,0,1.16-.16,1.4-.35.13-.1.24-.21.34-.34.06-.06.12-.11.16-.18,0,.12-.1.83-.28.97-.24.16-.44.2-1.63.2-.61,0-1.27-.06-1.71-.1-.24-.04-.47-.01-.68-.01-.12.01-.23.01-.33.01.09-.04.16-.11.23-.22"/>
  <path class="cls-1" d="M26.68,111.17c-.06.61,0,.94.1,1.13.05.1.12.17.18.22h-1.61c.1-.04.18-.11.29-.22.16-.17.32-.48.38-1.07l.83-7.66,3.66,7.43,3.6-7.43.79,7.62c.06.59.21.91.37,1.1.09.1.18.18.28.23h-1.86c.07-.04.15-.11.19-.22.1-.18.16-.51.1-1.13l-.49-5.07-3.14,6.54-3.23-6.54-.44,5.07Z"/>
  <path class="cls-1" d="M37.96,112.3c.11-.16.24-.41.24-.83v-6.72c0-.47-.12-.72-.23-.87-.07-.09-.14-.14-.23-.16h4.3l-.07.94c-.01-.06-.03-.11-.06-.17-.04-.1-.12-.2-.21-.27-.23-.16-1.5-.17-1.76-.17h-.81v3.63h1.88c.39,0,.57-.1.73-.2.07-.05.14-.13.19-.21,0,.11-.07,1.13-.07,1.29-.01-.06-.03-.12-.06-.17-.04-.1-.13-.2-.24-.26-.24-.1-.93-.07-1.5-.07h-.93v3.33c0,.4.08.93,1.34.93.87,0,1.16-.16,1.4-.35.13-.1.24-.21.34-.34.06-.06.12-.11.16-.18,0,.12-.1.83-.28.97-.24.16-.44.2-1.63.2-.61,0-1.27-.06-1.71-.1-.24-.04-.47-.01-.68-.01-.11.01-.23.01-.33.01.09-.04.16-.11.23-.22"/>
  <path class="cls-1" d="M45.46,111.47v-6.72c0-.5-.13-.76-.24-.89-.07-.07-.14-.13-.23-.14h3.66c2.67,0,4.9,1.84,4.9,4.54,0,.9-.26,1.76-.7,2.43-.61.87-1.77,1.97-4.56,1.97-1.03,0-2.62-.18-2.77-.18s-.29.01-.39.01c-.06.01-.11.01-.16.01.4-.18.49-.54.49-1.04M46.38,111.29c0,.5.37,1.11,2.1,1.11,3.03,0,4.12-2.04,4.12-4.04,0-2.38-1.67-4.38-4.4-4.38-.87,0-1.47.04-1.81.08v7.23Z"/>
  <path class="cls-1" d="M62.95,104.07v7.4c0,.51.11.79.23.91.07.07.14.12.24.13h-1.8c.06,0,.44-.05.44-1.03v-7.42h-1.98c-1,0-1.2.5-1.2.5l.03-.17c.01-.1.01-.23.06-.38l.09-.54s.03.04.07.07c.07.05.19.08.36.11.16.04.43.07.65.07h4.87c.11,0,.43.03.7-.07.14-.03.26-.09.36-.18l-.14,1.08c-.01-.09-.06-.17-.13-.24-.11-.12-.36-.24-.8-.24h-2.03Z"/>
  <path class="cls-1" d="M72.03,103.5c2.37,0,4.47,1.97,4.47,4.66,0,2.47-1.87,4.57-4.43,4.57-2.42,0-4.52-1.96-4.52-4.68,0-2.43,1.96-4.54,4.47-4.54M72.03,103.82c-2.04,0-3.47,1.83-3.47,4.1,0,2.84,1.75,4.47,3.57,4.47,1.94,0,3.42-1.58,3.42-3.94,0-2.07-1.1-4.63-3.52-4.63"/>
  <path class="cls-1" d="M82.63,112.51c.45-.28.48-.6.48-1.04v-6.72c0-.47-.13-.72-.24-.87-.07-.09-.14-.14-.23-.16h2.21c1.44,0,2.24.77,2.24,2.04,0,1.17-1,1.89-1.46,2.04.18.03.36.07.53.14.3.12.69.3,1.03.57.46.36.86.93.86,1.77s-.34,1.33-.79,1.72c-.57.51-1.38.63-1.96.63-.61,0-1.21-.04-1.67-.11-.3-.04-.54-.04-.73-.04l-.29.03ZM84.05,107.72h.9c.63,0,1.37-.64,1.37-1.94,0-1.14-.74-1.63-1.53-1.75-.26-.04-.5-.04-.74,0v3.69ZM84.05,111.41c0,.3.07.96,1.33.96s1.8-.87,1.8-1.96c0-1.58-1.1-2.39-2.35-2.39h-.78v3.39Z"/>
  <path class="cls-1" d="M90.95,112.3c.11-.16.24-.41.24-.83v-6.72c0-.47-.11-.72-.23-.87-.07-.09-.14-.14-.23-.16h4.3l-.07.94c-.01-.06-.03-.11-.06-.17-.04-.1-.12-.2-.21-.27-.23-.16-1.5-.17-1.76-.17h-.81v3.63h1.88c.39,0,.57-.1.73-.2.07-.05.14-.13.19-.21,0,.11-.07,1.13-.07,1.29-.02-.06-.03-.12-.06-.17-.04-.1-.13-.2-.24-.26-.24-.1-.93-.07-1.5-.07h-.93v3.33c0,.4.08.93,1.34.93.87,0,1.16-.16,1.4-.35.13-.1.24-.21.34-.34.06-.06.12-.11.16-.18,0,.12-.1.83-.28.97-.25.16-.45.2-1.63.2-.61,0-1.27-.06-1.71-.1-.24-.04-.47-.01-.69-.01-.11.01-.23.01-.33.01.09-.04.16-.11.23-.22"/>
  <path class="cls-1" d="M108.84,112.51v-.97c-.57.46-1.56,1.1-2.86,1.1s-2.08-.26-2.83-.87c-.82-.64-1.33-1.66-1.33-3.14v-3.97c0-.4-.11-.64-.21-.77-.07-.07-.14-.13-.21-.16h1.8c-.09.03-.16.09-.23.16-.12.13-.22.37-.22.77v4.03c0,.97.14,1.98.89,2.76.51.53,1.2.86,2.39.86s2.32-.81,2.81-1.27v-6.37c0-.41-.11-.66-.23-.78-.07-.07-.14-.13-.22-.14h1.8c-.08.01-.16.07-.23.14-.11.13-.21.34-.21.78v6.82c0,.44.1.68.21.84.07.1.14.16.23.2h-1.36Z"/>
  <path class="cls-1" d="M114.03,105.44v5.79c0,.57.11.9.27,1.07.07.1.17.17.27.22h-1.63c.09-.04.16-.11.23-.22.11-.17.24-.5.24-1.07v-7.66l7.01,7.25v-5.9c-.01-.56-.17-.84-.33-1-.1-.1-.2-.16-.3-.19h1.77c-.1.03-.2.09-.29.19-.16.15-.29.45-.29.98v7.77l-6.97-7.23Z"/>
  <path class="cls-1" d="M126.17,103.73c-.09.03-.16.09-.23.17-.11.15-.21.4-.21.86v6.72c0,.44.1.69.21.84.07.1.14.16.23.2h-1.8c.07-.03.14-.09.21-.17.1-.16.21-.41.21-.87v-6.72c0-.47-.11-.72-.21-.87-.07-.09-.14-.14-.21-.16h1.8Z"/>
  <path class="cls-1" d="M136.94,103.73c-.13.01-.26.09-.39.18-.23.17-.48.49-.76,1.07l-3.29,7.72-3.29-7.92c-.24-.56-.56-1.02-.97-1.06h2.02c-.09.01-.14.07-.19.14-.07.13-.07.4.14.92l2.51,6.13,2.54-6.13c.19-.47.19-.73.13-.88-.04-.09-.09-.14-.16-.17h1.69Z"/>
  <path class="cls-1" d="M139.15,112.3c.11-.16.24-.41.24-.83v-6.72c0-.47-.12-.72-.23-.87-.07-.09-.14-.14-.23-.16h4.3l-.07.94c-.01-.06-.03-.11-.06-.17-.04-.1-.12-.2-.22-.27-.23-.16-1.5-.17-1.76-.17h-.82v3.63h1.89c.39,0,.57-.1.73-.2.07-.05.14-.13.18-.21,0,.11-.07,1.13-.07,1.29-.01-.06-.03-.12-.06-.17-.04-.1-.13-.2-.24-.26-.24-.1-.93-.07-1.5-.07h-.93v3.33c0,.4.09.93,1.34.93.87,0,1.16-.16,1.4-.35.13-.1.24-.21.34-.34.06-.06.12-.11.16-.18,0,.12-.1.83-.28.97-.24.16-.44.2-1.63.2-.62,0-1.27-.06-1.72-.1-.24-.04-.47-.01-.68-.01-.12.01-.23.01-.33.01.08-.04.16-.11.23-.22"/>
  <path class="cls-1" d="M151.86,111.47c.49.74,1.04,1.46,1.97,1.46l-.2.06c-.13.04-.29.06-.5.06-.6,0-1.42-.23-2.07-1.27l-1.8-2.94c-.56.13-1.28.1-1.69.1v2.54c0,.5.1.73.22.89.07.09.14.14.23.16h-1.84c.09-.01.17-.05.24-.14.11-.13.24-.4.24-.9v-6.82c0-.41-.13-.66-.24-.78-.07-.07-.14-.13-.23-.14h2.53c1.37,0,2.77.89,2.77,2.42,0,.83-.51,1.94-1.43,2.44l1.8,2.89ZM150.66,106.57c0-2.28-1.96-2.56-2.57-2.56-.19,0-.29.01-.39.03l-.13.03v4.5c.11.01.34.04.7.04,1.9,0,2.38-1.11,2.38-2.04"/>
  <path class="cls-1" d="M156.5,112.66c-.86,0-1.5-.09-1.83-.39-.19-.13-.23-.53-.23-.8,0-.13,0-.23.01-.33,0-.04,0-.1.01-.14.16.73.82,1.3,2.03,1.3s1.94-.81,1.94-1.6c0-2.17-3.63-2.2-3.63-4.74,0-2.1,1.9-2.33,2.36-2.33s1.01.12,1.54.12c.19,0,.29-.01.3-.01-.04.3-.06.6-.1.87l-.06.43c-.18-.84-.8-1.09-1.66-1.09-1.21,0-1.7.96-1.7,1.59,0,.73.43,1.34,1.63,2.1,1.26.79,1.98,1.47,1.98,2.6,0,1.37-1.23,2.43-2.62,2.43"/>
  <path class="cls-1" d="M163.55,103.73c-.09.03-.16.09-.23.17-.12.15-.22.4-.22.86v6.72c0,.44.1.69.22.84.07.1.14.16.23.2h-1.8c.07-.03.14-.09.22-.17.1-.16.21-.41.21-.87v-6.72c0-.47-.11-.72-.21-.87-.07-.09-.14-.14-.22-.16h1.8Z"/>
  <path class="cls-1" d="M169.56,104.07v7.4c0,.51.12.79.23.91.07.07.14.12.24.13h-1.8c.06,0,.44-.05.44-1.03v-7.42h-1.99c-1,0-1.2.5-1.2.5l.03-.17c.01-.1.01-.23.06-.38l.09-.54s.03.04.07.07c.07.05.19.08.36.11.16.04.43.07.64.07h4.87c.11,0,.43.03.7-.07.15-.03.26-.09.36-.18l-.14,1.08c-.01-.09-.06-.17-.13-.24-.11-.12-.36-.24-.8-.24h-2.03Z"/>
  <path class="cls-1" d="M180.49,103.94c-.04-.1-.1-.17-.17-.21h1.63c-.1.04-.21.1-.33.19-.21.15-.5.41-.84.87-.41.55-1.01,1.4-1.51,2.09l-.9,1.24v3.37c0,.46.1.7.2.86.06.09.13.14.22.17h-1.79c.07-.03.14-.08.21-.17.11-.16.23-.39.23-.86v-3.13l-1.19-1.6c-.61-.84-1.27-1.74-1.47-1.97-.76-.9-.96-1.02-1.1-1.06h2.21c-.13.04-.21.12-.26.21-.1.16-.11.42.22.83.28.38.81,1.14,1.31,1.81l.89,1.26c.33-.47.64-.9.94-1.32.5-.69,1.03-1.46,1.24-1.74.29-.41.3-.68.26-.84"/>
  <path class="cls-1" d="M194.58,112.51v-.97c-.57.46-1.56,1.1-2.86,1.1s-2.09-.26-2.83-.87c-.81-.64-1.33-1.66-1.33-3.14v-3.97c0-.4-.12-.64-.21-.77-.07-.07-.14-.13-.21-.16h1.8c-.09.03-.16.09-.23.16-.11.13-.21.37-.21.77v4.03c0,.97.14,1.98.89,2.76.51.53,1.2.86,2.38.86s2.31-.81,2.81-1.27v-6.37c0-.41-.11-.66-.23-.78-.07-.07-.14-.13-.21-.14h1.8c-.08.01-.16.07-.23.14-.11.13-.21.34-.21.78v6.82c0,.44.1.68.21.84.07.1.14.16.23.2h-1.36Z"/>
  <path class="cls-1" d="M199.77,105.44v5.79c0,.57.12.9.27,1.07.07.1.17.17.27.22h-1.63c.09-.04.16-.11.23-.22.11-.17.24-.5.24-1.07v-7.66l7.01,7.25v-5.9c-.01-.56-.17-.84-.33-1-.1-.1-.2-.16-.3-.19h1.77c-.1.03-.2.09-.28.19-.16.15-.29.45-.29.98v7.77l-6.97-7.23Z"/>
  <path class="cls-1" d="M210.55,111.47v-6.72c0-.5-.13-.76-.24-.89-.07-.07-.14-.13-.23-.14h3.66c2.67,0,4.9,1.84,4.9,4.54,0,.9-.26,1.76-.7,2.43-.61.87-1.77,1.97-4.56,1.97-1.03,0-2.62-.18-2.77-.18s-.28.01-.38.01c-.06.01-.11.01-.16.01.4-.18.49-.54.49-1.04M211.47,111.29c0,.5.37,1.11,2.1,1.11,3.03,0,4.11-2.04,4.11-4.04,0-2.38-1.67-4.38-4.4-4.38-.87,0-1.47.04-1.82.08v7.23Z"/>
  <path class="cls-1" d="M221.62,112.3c.11-.16.24-.41.24-.83v-6.72c0-.47-.12-.72-.23-.87-.07-.09-.14-.14-.23-.16h4.3l-.07.94c-.01-.06-.03-.11-.06-.17-.04-.1-.11-.2-.21-.27-.23-.16-1.5-.17-1.76-.17h-.82v3.63h1.89c.39,0,.57-.1.73-.2.07-.05.14-.13.19-.21,0,.11-.07,1.13-.07,1.29-.02-.06-.03-.12-.06-.17-.04-.1-.13-.2-.24-.26-.24-.1-.93-.07-1.5-.07h-.93v3.33c0,.4.09.93,1.34.93.87,0,1.16-.16,1.4-.35.13-.1.24-.21.34-.34.06-.06.11-.11.16-.18,0,.12-.1.83-.29.97-.24.16-.44.2-1.63.2-.62,0-1.27-.06-1.72-.1-.24-.04-.47-.01-.69-.01-.11.01-.23.01-.33.01.08-.04.16-.11.23-.22"/>
  <path class="cls-1" d="M234.32,111.47c.49.74,1.04,1.46,1.97,1.46l-.2.06c-.13.04-.29.06-.5.06-.6,0-1.42-.23-2.07-1.27l-1.8-2.94c-.56.13-1.28.1-1.69.1v2.54c0,.5.1.73.21.89.07.09.14.14.23.16h-1.85c.09-.01.17-.05.24-.14.11-.13.24-.4.24-.9v-6.82c0-.41-.13-.66-.24-.78-.07-.07-.14-.13-.23-.14h2.53c1.37,0,2.77.89,2.77,2.42,0,.83-.51,1.94-1.43,2.44l1.8,2.89ZM233.12,106.57c0-2.28-1.96-2.56-2.57-2.56-.19,0-.29.01-.39.03l-.13.03v4.5c.11.01.34.04.7.04,1.9,0,2.39-1.11,2.39-2.04"/>
  <path class="cls-1" d="M242.35,112.66c-.86,0-1.5-.09-1.83-.39-.19-.13-.23-.53-.23-.8,0-.13,0-.23.01-.33,0-.04,0-.1.01-.14.16.73.81,1.3,2.03,1.3s1.94-.81,1.94-1.6c0-2.17-3.63-2.2-3.63-4.74,0-2.1,1.9-2.33,2.36-2.33s1.01.12,1.54.12c.18,0,.28-.01.3-.01-.04.3-.06.6-.1.87l-.06.43c-.18-.84-.8-1.09-1.66-1.09-1.21,0-1.7.96-1.7,1.59,0,.73.43,1.34,1.63,2.1,1.26.79,1.98,1.47,1.98,2.6,0,1.37-1.23,2.43-2.62,2.43"/>
  <path class="cls-1" d="M247.79,112.3c.12-.16.24-.41.24-.83v-6.72c0-.47-.11-.72-.23-.87-.07-.09-.14-.14-.23-.16h4.3l-.07.94c-.01-.06-.03-.11-.06-.17-.04-.1-.11-.2-.21-.27-.23-.16-1.5-.17-1.76-.17h-.82v3.63h1.89c.39,0,.57-.1.73-.2.07-.05.15-.13.19-.21,0,.11-.07,1.13-.07,1.29-.01-.06-.03-.12-.05-.17-.05-.1-.13-.2-.24-.26-.24-.1-.93-.07-1.5-.07h-.93v3.33c0,.4.09.93,1.34.93.87,0,1.16-.16,1.4-.35.13-.1.24-.21.35-.34.06-.06.11-.11.16-.18,0,.12-.1.83-.29.97-.24.16-.44.2-1.63.2-.61,0-1.27-.06-1.71-.1-.24-.04-.47-.01-.69-.01-.12.01-.23.01-.33.01.09-.04.16-.11.23-.22"/>
  <path class="cls-1" d="M254.86,108c0-.91.24-1.8.74-2.53.62-.88,1.77-1.87,3.64-1.87,1.33,0,2.15.18,3.29.46l-.1,1.21c-.13-.25-.34-.48-.61-.68-.47-.35-1.24-.69-2.5-.69-2.23,0-3.52,1.9-3.52,4s1.44,4.4,4.04,4.4c.99,0,2.2-.23,2.85-.96-.04.5-.24,1.3-3.04,1.3-2.63,0-4.79-1.96-4.79-4.64"/>
  <path class="cls-1" d="M268.56,104.07v7.4c0,.51.11.79.23.91.07.07.14.12.24.13h-1.8c.06,0,.44-.05.44-1.03v-7.42h-1.99c-1,0-1.2.5-1.2.5l.03-.17c.01-.1.01-.23.06-.38l.09-.54s.03.04.07.07c.07.05.19.08.36.11.16.04.43.07.64.07h4.87c.11,0,.43.03.7-.07.14-.03.26-.09.36-.18l-.14,1.08c-.02-.09-.06-.17-.13-.24-.11-.12-.36-.24-.8-.24h-2.03Z"/>
  <path class="cls-1" d="M275.46,103.73c-.09.03-.16.09-.23.17-.12.15-.22.4-.22.86v6.72c0,.44.1.69.22.84.07.1.14.16.23.2h-1.8c.07-.03.14-.09.22-.17.1-.16.21-.41.21-.87v-6.72c0-.47-.11-.72-.21-.87-.07-.09-.14-.14-.22-.16h1.8Z"/>
  <path class="cls-1" d="M282.72,103.5c2.37,0,4.47,1.97,4.47,4.66,0,2.47-1.87,4.57-4.43,4.57-2.41,0-4.51-1.96-4.51-4.68,0-2.43,1.96-4.54,4.47-4.54M282.72,103.82c-2.04,0-3.47,1.83-3.47,4.1,0,2.84,1.75,4.47,3.57,4.47,1.94,0,3.41-1.58,3.41-3.94,0-2.07-1.1-4.63-3.52-4.63"/>
  <path class="cls-1" d="M291.05,105.44v5.79c0,.57.11.9.27,1.07.07.1.17.17.27.22h-1.63c.09-.04.16-.11.23-.22.12-.17.24-.5.24-1.07v-7.66l7.01,7.25v-5.9c-.01-.56-.17-.84-.33-1-.1-.1-.2-.16-.3-.19h1.77c-.1.03-.2.09-.29.19-.16.15-.29.45-.29.98v7.77l-6.97-7.23Z"/>
  <path class="cls-1" d="M310.35,109.64c0,.87-.42,1.62-.97,2.06-.74.67-1.47.94-2.33.94-.65,0-1.16-.1-1.5-.22-.2-.06-.37-.13-.53-.21l-.14-.74c.13.16.3.3.51.42.36.21.87.41,1.66.41,1.41,0,2.41-1.28,2.34-2.66-.11-1.76-1.34-2.26-1.87-2.33-.24-.05-.5-.03-.71-.02l-.34.03,2.17-2.79h-2.61c-.24,0-.44.11-.57.22l-.2.21.3-1.26h4.41l-1.33,1.63c-.64.81-1.32,1.63-1.32,1.6,1.23.04,3.03.7,3.03,2.7"/>
  <path class="cls-1" d="M321.12,103.5c2.37,0,4.47,1.97,4.47,4.66,0,2.47-1.87,4.57-4.43,4.57-2.41,0-4.52-1.96-4.52-4.68,0-2.43,1.96-4.54,4.47-4.54M321.12,103.82c-2.04,0-3.47,1.83-3.47,4.1,0,2.84,1.74,4.47,3.57,4.47,1.94,0,3.42-1.58,3.42-3.94,0-2.07-1.1-4.63-3.52-4.63"/>
  <path class="cls-1" d="M328.36,112.51c.09-.01.16-.07.23-.16.12-.16.24-.39.24-.89v-6.72c0-.46-.11-.7-.23-.86-.07-.09-.14-.14-.23-.17h4.3l-.07.96h-.01c0-.07-.06-.33-.27-.46-.26-.14-1.51-.16-1.74-.16h-.82v3.81h1.71c.39,0,.59-.1.72-.21.07-.06.13-.13.17-.21h.01l-.07,1.28c-.01-.07-.03-.13-.06-.17-.06-.1-.14-.19-.26-.26-.22-.12-.95-.09-1.5-.09h-.73v3.24c0,.91.53,1.04.56,1.04h-1.96Z"/>
  <path class="cls-1" d="M346.27,112.51v-.97c-.57.46-1.56,1.1-2.86,1.1s-2.08-.26-2.83-.87c-.82-.64-1.33-1.66-1.33-3.14v-3.97c0-.4-.12-.64-.21-.77-.07-.07-.14-.13-.21-.16h1.8c-.09.03-.16.09-.23.16-.11.13-.22.37-.22.77v4.03c0,.97.14,1.98.89,2.76.51.53,1.2.86,2.39.86s2.31-.81,2.81-1.27v-6.37c0-.41-.11-.66-.23-.78-.07-.07-.14-.13-.22-.14h1.8c-.08.01-.16.07-.23.14-.12.13-.22.34-.22.78v6.82c0,.44.1.68.22.84.07.1.14.16.23.2h-1.36Z"/>
  <path class="cls-1" d="M350.45,107.98c0-.92.23-1.79.73-2.52.62-.88,1.76-1.87,3.63-1.87,1.48,0,2.14.16,3.28.46l-.09,1.21c-.14-.26-.36-.48-.63-.68-.47-.35-1.24-.69-2.49-.69-2.23,0-3.51,1.9-3.51,4s1.44,4.42,4.04,4.42c.97,0,1.6-.17,1.98-.33v-2.98c0-.44-.1-.66-.2-.77-.06-.07-.13-.11-.2-.13h1.69c-.07.01-.14.04-.2.11-.1.12-.18.32-.18.76v3.19c-.53.24-1.47.49-3.08.49-2.65,0-4.77-1.97-4.77-4.66"/>
  <path class="cls-1" d="M361.49,108c0-.91.24-1.8.74-2.53.62-.88,1.77-1.87,3.64-1.87,1.33,0,2.14.18,3.29.46l-.1,1.21c-.13-.25-.34-.48-.61-.68-.47-.35-1.24-.69-2.5-.69-2.23,0-3.51,1.9-3.51,4s1.44,4.4,4.04,4.4c.99,0,2.2-.23,2.85-.96-.04.5-.24,1.3-3.04,1.3-2.63,0-4.79-1.96-4.79-4.64"/>
  <path class="cls-1" d="M376.2,111.43c-.21.51-.14.92.04,1.09h-1.58c.23-.11.54-.3.89-1.16l2.99-7.84,3.24,7.93c.34.87.7.96.92,1.07h-1.94c.24-.17.27-.41.09-.91l-1.03-2.73h-2.67l-.93,2.56ZM378.48,105.33l-1.22,3.2h2.43l-1.21-3.2Z"/>
  <path class="cls-1" d="M384.35,108c0-.91.24-1.8.74-2.53.62-.88,1.78-1.87,3.64-1.87,1.33,0,2.14.18,3.29.46l-.1,1.21c-.13-.25-.34-.48-.61-.68-.47-.35-1.24-.69-2.5-.69-2.23,0-3.51,1.9-3.51,4s1.44,4.4,4.04,4.4c.99,0,2.2-.23,2.85-.96-.04.5-.24,1.3-3.05,1.3-2.63,0-4.79-1.96-4.79-4.64"/>
  <path class="cls-1" d="M398.05,104.07v7.4c0,.51.11.79.23.91.07.07.14.12.24.13h-1.8c.06,0,.44-.05.44-1.03v-7.42h-1.99c-1,0-1.2.5-1.2.5l.03-.17c.01-.1.01-.23.06-.38l.08-.54s.03.04.07.07c.07.05.19.08.36.11.16.04.43.07.65.07h4.87c.11,0,.43.03.7-.07.14-.03.26-.09.36-.18l-.14,1.08c-.02-.09-.06-.17-.13-.24-.11-.12-.36-.24-.8-.24h-2.03Z"/>
  <path class="cls-1" d="M403.15,112.13c0,.3-.2.65-.39.94-.12.17-.24.33-.39.49.07-.16.11-.31.16-.44.07-.23.13-.44.03-.49-.07-.05-.23-.06-.27-.16-.1-.1-.16-.21-.16-.34,0-.33.21-.54.5-.54s.51.21.51.54"/>
  <path class="cls-1" d="M412.78,111.47c0,.44.1.68.21.84.07.1.14.15.23.2h-1.8c.09-.03.16-.08.23-.17.11-.16.23-.41.23-.87v-6.33c0-.44-.16-.63-.32-.74-.1-.06-.2-.1-.31-.11l1.53-.66v7.85Z"/>
  <path class="cls-1" d="M423.57,108.06c0,2.54-1.42,4.36-3.2,4.59-.7.1-1.26-.03-1.64-.16-.23-.07-.43-.17-.59-.29l-.06-.43c-.04-.22-.04-.4-.03-.34.03.07.83,1.06,2.23.87.97-.15,1.53-.88,1.86-1.74.46-1.13.43-2.46.43-2.48-.56.68-1.14,1-1.77,1.11-.83.14-2.52-.27-2.79-2.24-.16-1.03.21-1.8.61-2.36.5-.65,1.07-.9,1.69-.97,2.1-.27,3.26,1.76,3.26,4.45M420.34,103.9c-.83.11-1.69,1.17-1.5,2.77.16,1.44.94,2.44,2.17,2.13,1-.2,1.56-1.32,1.56-1.36.06-3.34-1.59-3.6-2.23-3.54"/>
  <path class="cls-1" d="M428.83,104.63l-1.02,2.46c.07-.01.16-.04.26-.06.17-.05.41-.06.77-.06,1.2,0,3,.7,3,2.69,0,.93-.43,1.66-1.04,2.19-.69.62-1.4.82-2.3.82-.65,0-1.15-.1-1.47-.22-.18-.07-.36-.14-.5-.23l-.17-.74c.13.17.3.31.5.44.34.21.86.43,1.6.43,1.37,0,2.43-1.22,2.43-2.69,0-1.84-1.42-2.21-1.93-2.29-.87-.11-1.79.16-1.94.27.07-.18.16-.4.26-.61l.56-1.34.81-1.97h2.44c.36,0,.7-.07.8-.13l-.47,1.04h-2.59Z"/>
  <path class="cls-1" d="M440.69,109.31c.16,1.03-.21,1.83-.61,2.34-.51.64-1.1.91-1.69.99-2.13.23-3.26-1.74-3.26-4.46,0-2.5,1.41-4.37,3.19-4.56.7-.1,1.27.01,1.66.15.23.07.43.17.59.27.01.17.04.32.06.44.04.21.04.41.03.36-.04-.13-.81-1.05-2.23-.9-.99.16-1.56.91-1.86,1.76-.46,1.16-.43,2.43-.46,2.46.56-.67,1.19-.97,1.8-1.07.89-.16,2.49.24,2.79,2.23M439.87,109.59c-.19-1.49-.97-2.39-2.17-2.16-1.01.22-1.59,1.33-1.59,1.36-.06,3.39,1.64,3.63,2.24,3.57.86-.14,1.7-1.16,1.51-2.77"/>
</svg>